<?xml version="1.0" encoding="UTF-8"?>
<svg id="Calque_2" xmlns="http://www.w3.org/2000/svg" version="1.1" viewBox="0 0 147.4 98.3">
  <!-- Generator: Adobe Illustrator 29.3.1, SVG Export Plug-In . SVG Version: 2.1.0 Build 151)  -->
  <defs>
    <style>
      .st0 {
        isolation: isolate;
      }

      .st1 {
        fill: #fff;
      }
    </style>
  </defs>
  <g id="Calque_1-2">
    <g>
      <rect width="32.8" height="32.8" rx="16.4" ry="16.4"/>
      <rect y="32.8" width="32.8" height="32.8"/>
      <rect x="32.8" y="32.8" width="32.8" height="32.8"/>
      <rect x="65.5" y="32.8" width="32.8" height="32.8" rx="16.4" ry="16.4"/>
      <rect y="65.5" width="32.8" height="32.8" rx="16.4" ry="16.4"/>
      <rect x="82.1" y="65.5" width="32.8" height="32.8" rx="16.4" ry="16.4"/>
      <rect x="32.8" y="65.5" width="32.8" height="32.8"/>
      <rect x="49.2" y="65.5" width="32.8" height="32.8"/>
      <rect x="32.8" width="32.8" height="32.8"/>
      <rect x="65.5" width="32.8" height="32.8"/>
      <rect x="98.3" width="32.8" height="32.8"/>
      <rect x="114.7" width="32.8" height="32.8"/>
      <g class="st0">
        <g class="st0">
          <path class="st1" d="M13.6,22.8c-1.4,0-2.5-.4-3.3-1.2-.8-.8-1.2-1.8-1.2-3.1v-6.5c0-1.3.4-2.4,1.2-3.1.8-.8,1.9-1.1,3.3-1.1s2.4.4,3.2,1.1c.8.8,1.2,1.8,1.2,3.1h-2.2c0-.8-.2-1.3-.6-1.7-.4-.4-1-.6-1.7-.6s-1.3.2-1.7.6c-.4.4-.6,1-.6,1.7v6.5c0,.8.2,1.3.6,1.7.4.4,1,.6,1.7.6s1.3-.2,1.7-.6c.4-.4.6-1,.6-1.7h2.2c0,1.3-.4,2.3-1.2,3.1-.8.8-1.9,1.2-3.2,1.2Z"/>
          <path class="st1" d="M24.3,22.8c-1.1,0-2-.3-2.7-1-.7-.6-1-1.5-1-2.5s.4-1.9,1.1-2.5c.7-.6,1.6-1,2.8-1h3v-.8c0-1.3-.7-1.9-2.1-1.9s-1.2.1-1.5.4-.6.6-.6,1h-2.1c0-.9.5-1.7,1.2-2.3.8-.6,1.8-.9,3.1-.9s2.4.3,3.2,1c.7.6,1.1,1.6,1.1,2.7v7.5h-2.1v-2.1h0c0,.7-.4,1.3-1,1.7-.6.4-1.3.6-2.3.6ZM24.9,21.1c.8,0,1.5-.2,1.9-.6.5-.4.7-.9.7-1.6v-1.4h-2.9c-.6,0-1,.2-1.4.5-.3.3-.5.8-.5,1.3s.2,1,.6,1.3c.4.3.9.5,1.6.5Z"/>
          <path class="st1" d="M39.1,22.6c-1,0-1.9-.3-2.5-.9-.6-.6-.9-1.4-.9-2.4v-9.3h-3.7v-2h5.9v11.2c0,.4.1.8.4,1,.2.3.6.4,1,.4h3.3v2h-3.4Z"/>
          <path class="st1" d="M49.6,22.8c-1.4,0-2.5-.4-3.3-1.1-.8-.8-1.2-1.8-1.2-3.1v-2.9c0-1.3.4-2.4,1.2-3.1.8-.8,1.9-1.1,3.3-1.1s2.4.3,3.2,1c.8.7,1.2,1.6,1.3,2.8h-2.1c0-.6-.3-1.1-.7-1.5s-1-.5-1.6-.5-1.3.2-1.7.6c-.4.4-.6,1-.6,1.7v2.9c0,.8.2,1.3.6,1.8.4.4,1,.6,1.7.6s1.2-.2,1.7-.5.6-.8.7-1.5h2.1c0,1.2-.5,2.2-1.3,2.9-.8.7-1.9,1-3.2,1Z"/>
          <path class="st1" d="M61.4,22.8c-1.3,0-2.4-.4-3.2-1.2-.8-.8-1.2-1.8-1.2-3.1v-6.9h2.2v6.9c0,.7.2,1.3.6,1.8.4.4.9.7,1.6.7s1.2-.2,1.6-.7c.4-.4.6-1,.6-1.8v-6.9h2.2v6.9c0,1.3-.4,2.4-1.2,3.1-.8.8-1.9,1.2-3.2,1.2Z"/>
          <path class="st1" d="M75.1,22.6c-1,0-1.9-.3-2.5-.9-.6-.6-.9-1.4-.9-2.4v-9.3h-3.7v-2h5.9v11.2c0,.4.1.8.4,1,.2.3.6.4,1,.4h3.3v2h-3.4Z"/>
          <path class="st1" d="M84.3,22.8c-1.1,0-2-.3-2.7-1-.7-.6-1-1.5-1-2.5s.4-1.9,1.1-2.5c.7-.6,1.6-1,2.8-1h3v-.8c0-1.3-.7-1.9-2.1-1.9s-1.2.1-1.5.4-.6.6-.6,1h-2.1c0-.9.5-1.7,1.2-2.3.8-.6,1.8-.9,3.1-.9s2.4.3,3.2,1c.7.6,1.1,1.6,1.1,2.7v7.5h-2.1v-2.1h0c0,.7-.4,1.3-1,1.7-.6.4-1.3.6-2.3.6ZM84.9,21.1c.8,0,1.5-.2,1.9-.6s.7-.9.7-1.6v-1.4h-2.9c-.6,0-1,.2-1.4.5s-.5.8-.5,1.3.2,1,.6,1.3c.4.3.9.5,1.6.5Z"/>
          <path class="st1" d="M98.5,22.6c-1,0-1.7-.3-2.3-.8-.6-.6-.9-1.3-.9-2.3v-5.9h-3.1v-2h3.1v-3.1h2.2v3.1h4.4v2h-4.4v5.9c0,.3,0,.6.3.8s.5.3.8.3h3.2v2h-3.3Z"/>
          <path class="st1" d="M109.4,22.8c-1.3,0-2.4-.4-3.2-1.2-.8-.8-1.2-1.9-1.2-3.2v-2.6c0-1.4.4-2.4,1.2-3.2.8-.8,1.9-1.2,3.2-1.2s1.7.2,2.4.5c.7.4,1.2.8,1.6,1.5.4.6.5,1.4.5,2.2v2h-6.8v.9c0,.8.2,1.4.6,1.8s1,.6,1.7.6,1.1-.1,1.5-.3c.4-.2.6-.5.7-.9h2.1c-.1.9-.6,1.7-1.4,2.2-.8.6-1.8.8-3,.8ZM107,15.7v.5h4.8v-.5c0-.8-.2-1.4-.6-1.9-.4-.4-1-.7-1.8-.7s-1.3.2-1.8.7c-.4.4-.6,1.1-.6,1.9Z"/>
          <path class="st1" d="M121.4,22.8c-1.3,0-2.4-.4-3.2-1.2s-1.2-1.8-1.2-3.1v-6.9h2.2v6.9c0,.7.2,1.3.6,1.8.4.4.9.7,1.6.7s1.2-.2,1.6-.7c.4-.4.6-1,.6-1.8v-6.9h2.2v6.9c0,1.3-.4,2.4-1.2,3.1-.8.8-1.9,1.2-3.2,1.2Z"/>
          <path class="st1" d="M129.5,22.6v-11h2.1v2.2c.1-.7.4-1.3.9-1.7.5-.4,1.2-.6,2.1-.6s2,.4,2.6,1.1c.6.7.9,1.7.9,3v1h-2.2v-.9c0-1.5-.7-2.2-2.2-2.2s-1.3.2-1.6.6c-.4.4-.6,1-.6,1.8v6.9h-2.2Z"/>
        </g>
      </g>
      <g class="st0">
        <g class="st0">
          <path class="st1" d="M13.6,55.6c-1.4,0-2.5-.4-3.3-1.2-.8-.8-1.2-1.8-1.2-3.1v-6.5c0-1.3.4-2.4,1.2-3.1.8-.8,1.9-1.1,3.3-1.1s2.4.4,3.2,1.1c.8.8,1.2,1.8,1.2,3.1h-2.2c0-.8-.2-1.3-.6-1.7-.4-.4-1-.6-1.7-.6s-1.3.2-1.7.6c-.4.4-.6,1-.6,1.7v6.5c0,.8.2,1.3.6,1.7.4.4,1,.6,1.7.6s1.3-.2,1.7-.6c.4-.4.6-1,.6-1.7h2.2c0,1.3-.4,2.3-1.2,3.1-.8.8-1.9,1.2-3.2,1.2Z"/>
          <path class="st1" d="M24.3,55.6c-1.1,0-2-.3-2.7-1-.7-.6-1-1.5-1-2.5s.4-1.9,1.1-2.5c.7-.6,1.6-1,2.8-1h3v-.8c0-1.3-.7-1.9-2.1-1.9s-1.2.1-1.5.4-.6.6-.6,1h-2.1c0-.9.5-1.7,1.2-2.3.8-.6,1.8-.9,3.1-.9s2.4.3,3.2,1c.7.6,1.1,1.6,1.1,2.7v7.5h-2.1v-2.1h0c0,.7-.4,1.3-1,1.7-.6.4-1.3.6-2.3.6ZM24.9,53.8c.8,0,1.5-.2,1.9-.6.5-.4.7-.9.7-1.6v-1.4h-2.9c-.6,0-1,.2-1.4.5-.3.3-.5.8-.5,1.3s.2,1,.6,1.3c.4.3.9.5,1.6.5Z"/>
          <path class="st1" d="M33.5,55.4v-11h2.1v2.2c.1-.7.4-1.3.9-1.7s1.2-.6,2.1-.6,2,.4,2.6,1.1c.6.7.9,1.7.9,3v1h-2.2v-.9c0-1.5-.7-2.2-2.2-2.2s-1.3.2-1.6.6c-.4.4-.6,1-.6,1.8v6.9h-2.2Z"/>
          <path class="st1" d="M50.2,55.6c-.8,0-1.5-.2-2-.6-.5-.4-.9-1-1-1.7v2.1h-2.1v-14.6h2.2v5.7c.1-.7.5-1.3,1-1.7s1.2-.6,2-.6,2,.4,2.6,1.1c.7.7,1,1.8,1,3v3.1c0,1.3-.3,2.3-1,3s-1.5,1.1-2.6,1.1ZM49.5,53.7c.7,0,1.2-.2,1.6-.6.4-.4.6-1,.6-1.8v-3c0-.8-.2-1.4-.6-1.8-.4-.4-.9-.6-1.6-.6s-1.2.2-1.6.6c-.4.4-.6,1-.6,1.8v2.8c0,.8.2,1.4.6,1.8.4.4.9.6,1.6.6Z"/>
          <path class="st1" d="M61.4,55.6c-1.4,0-2.4-.4-3.2-1.2-.8-.8-1.2-1.9-1.2-3.2v-2.6c0-1.4.4-2.5,1.2-3.2.8-.8,1.9-1.2,3.3-1.2s2.5.4,3.3,1.2c.8.8,1.2,1.9,1.2,3.2v2.6c0,1.4-.4,2.4-1.2,3.2-.8.8-1.9,1.2-3.2,1.2ZM61.4,53.7c.7,0,1.3-.2,1.7-.6.4-.4.6-1,.6-1.8v-2.8c0-.8-.2-1.3-.6-1.8-.4-.4-1-.6-1.7-.6s-1.3.2-1.7.6c-.4.4-.6,1-.6,1.8v2.8c0,.8.2,1.3.6,1.8.4.4,1,.6,1.7.6Z"/>
          <path class="st1" d="M69.1,55.4v-11h2.1v2.1c.1-.7.4-1.3.9-1.7.5-.4,1.2-.6,2-.6s2,.4,2.6,1c.7.7,1,1.6,1,2.8v7.3h-2.2v-7c0-.8-.2-1.3-.6-1.8-.4-.4-.9-.6-1.6-.6s-1.2.2-1.6.6c-.4.4-.6,1-.6,1.8v6.9h-2.2Z"/>
          <path class="st1" d="M85.4,55.6c-1.3,0-2.4-.4-3.2-1.2-.8-.8-1.2-1.9-1.2-3.2v-2.6c0-1.4.4-2.4,1.2-3.2.8-.8,1.9-1.2,3.2-1.2s1.7.2,2.4.5c.7.4,1.2.8,1.5,1.5.4.6.5,1.4.5,2.2v2h-6.8v.9c0,.8.2,1.4.6,1.8s1,.6,1.7.6,1.1-.1,1.5-.3c.4-.2.6-.5.7-.9h2.1c-.1.9-.6,1.7-1.4,2.2s-1.8.8-3,.8ZM83,48.5v.5h4.8v-.5c0-.8-.2-1.4-.6-1.9-.4-.4-1-.7-1.8-.7s-1.3.2-1.8.7c-.4.4-.6,1.1-.6,1.9Z"/>
        </g>
      </g>
      <g class="st0">
        <g class="st0">
          <path class="st1" d="M13.8,88.4c-1.4,0-2.5-.4-3.3-1.2-.8-.8-1.2-1.8-1.2-3.1v-6.5c0-1.3.4-2.4,1.2-3.1.8-.8,1.9-1.1,3.3-1.1s2.4.4,3.2,1.1c.8.8,1.2,1.8,1.2,3.1h-2.2c0-.8-.2-1.3-.6-1.7-.4-.4-1-.6-1.7-.6s-1.3.2-1.7.6c-.4.4-.6,1-.6,1.7v6.5c0,.8.2,1.3.6,1.7.4.4,1,.6,1.7.6s1.3-.2,1.7-.6c.4-.4.6-1,.6-1.7h2.2c0,1.3-.4,2.3-1.2,3.1-.8.8-1.9,1.2-3.2,1.2Z"/>
          <path class="st1" d="M24.5,88.4c-1.1,0-2-.3-2.7-1-.7-.6-1-1.5-1-2.5s.4-1.9,1.1-2.5c.7-.6,1.6-1,2.8-1h3v-.8c0-1.3-.7-1.9-2.1-1.9s-1.2.1-1.5.4-.6.6-.6,1h-2.1c0-.9.5-1.7,1.2-2.3.8-.6,1.8-.9,3.1-.9s2.4.3,3.2,1c.7.6,1.1,1.6,1.1,2.7v7.5h-2.1v-2.1h0c0,.7-.4,1.3-1,1.7-.6.4-1.3.6-2.3.6ZM25.2,86.6c.8,0,1.5-.2,1.9-.6.5-.4.7-.9.7-1.6v-1.4h-2.9c-.6,0-1,.2-1.4.5-.3.3-.5.8-.5,1.3s.2,1,.6,1.3c.4.3.9.5,1.6.5Z"/>
          <path class="st1" d="M32.7,88.2v-11h1.8v1.5h0c0-.5.2-.9.6-1.3.3-.3.8-.5,1.3-.5s.9.2,1.2.5c.3.3.6.7.7,1.2,0-.5.3-.9.6-1.2s.8-.5,1.3-.5,1.2.3,1.7.8c.4.5.6,1.2.6,2v8.4h-2v-8.3c0-.4,0-.7-.3-1-.2-.2-.4-.3-.8-.3s-.6.1-.8.3c-.2.2-.3.5-.3.9v8.3h-1.8v-8.3c0-.4,0-.7-.3-1-.2-.2-.4-.3-.8-.3s-.6.1-.8.3c-.2.2-.3.5-.3.9v8.3h-2Z"/>
          <path class="st1" d="M45.3,91.8v-14.6h2.1v2.1c.1-.7.5-1.3,1-1.7.5-.4,1.2-.6,2-.6s2,.4,2.6,1.1c.7.8,1,1.8,1,3v3.1c0,1.3-.3,2.3-1,3-.7.8-1.5,1.1-2.6,1.1s-1.5-.2-2-.6-.9-1-1-1.7h0v2.6c0,0,0,3.1,0,3.1h-2.2ZM49.7,86.5c.7,0,1.2-.2,1.6-.6.4-.4.6-1,.6-1.8v-3c0-.8-.2-1.4-.6-1.8-.4-.4-.9-.6-1.6-.6s-1.2.2-1.6.6c-.4.4-.6,1-.6,1.8v2.8c0,.8.2,1.4.6,1.8.4.4.9.6,1.6.6Z"/>
          <path class="st1" d="M61.6,88.4c-1.3,0-2.4-.4-3.2-1.2-.8-.8-1.2-1.8-1.2-3.1v-6.9h2.2v6.9c0,.7.2,1.3.6,1.8.4.4.9.7,1.6.7s1.2-.2,1.6-.7c.4-.4.6-1,.6-1.8v-6.9h2.2v6.9c0,1.3-.4,2.4-1.2,3.1-.8.8-1.9,1.2-3.2,1.2Z"/>
          <path class="st1" d="M73.2,88.3c-1.3,0-2.3-.3-3-.9-.7-.6-1.1-1.4-1.1-2.4h2.1c0,.5.2.8.5,1.1.3.3.8.4,1.4.4h.9c.6,0,1.1-.1,1.5-.4s.5-.6.5-1.1c0-.8-.4-1.3-1.3-1.4l-2.9-.4c-.8-.1-1.4-.4-1.9-1-.4-.5-.7-1.2-.7-2.1s.3-1.8,1-2.3c.7-.6,1.6-.8,2.9-.8h.9c1.1,0,2.1.3,2.8.8.7.5,1.1,1.3,1.1,2.2h-2.2c0-.4-.2-.7-.5-.9s-.7-.4-1.2-.4h-.9c-.6,0-1,.1-1.3.4-.3.3-.5.6-.5,1,0,.7.4,1.1,1.1,1.2l2.7.4c2,.3,2.9,1.4,2.9,3.4s-.4,1.9-1.1,2.4-1.7.9-3,.9h-.9Z"/>
        </g>
      </g>
    </g>
  </g>
</svg>