<?xml version="1.0" encoding="UTF-8"?><svg id="a" xmlns="http://www.w3.org/2000/svg" viewBox="0 0 159.64 159.64"><path d="M49.6,107.02c1.67,0,3.02-1.35,3.02-3.02s-1.35-3.02-3.02-3.02-3.02,1.35-3.02,3.02,1.35,3.02,3.02,3.02Z"/><path d="M55.64,58.67c.85,0,1.62-.35,2.17-.92h0l5.13-5.12h28.97c.84,0,1.6-.35,2.15-.9h0l6.01-6.01h0c.56-.55,.9-1.31,.9-2.15h0c0-.84-.35-1.6-.9-2.15h0l-6.01-6.01h0c-.55-.55-1.31-.9-2.15-.9h-22.93l-3.02-3.02,3.02-3.02h16.88c.84,0,1.6-.35,2.15-.9h0l6.01-6.01h0c.56-.55,.9-1.31,.9-2.15s-.35-1.6-.9-2.15h0l-6.01-6.01h0c-.55-.55-1.31-.9-2.15-.9-1.67,0-3.02,1.35-3.02,3.02,0,.84,.35,1.6,.9,2.15h0l3.89,3.89-3.02,3.02h-16.88c-.84,0-1.6,.35-2.15,.9h0l-6.01,6.01h0c-.56,.55-.9,1.31-.9,2.15s.35,1.6,.9,2.15h0l6.01,6.01h0c.55,.55,1.31,.9,2.15,.9h22.92l3.02,3.02-3.02,3.02h-28.97c-.83,0-1.59,.34-2.14,.89l-6.01,6.01h0c-.57,.55-.92,1.32-.92,2.17h0c0,1.67,1.35,3.02,3.02,3.02Z"/><path d="M49.6,125.15c1.67,0,3.02-1.35,3.02-3.02s-1.35-3.02-3.02-3.02-3.02,1.35-3.02,3.02,1.35,3.02,3.02,3.02Z"/><path d="M52.62,128.17c0-1.67-1.35-3.02-3.02-3.02s-3.02,1.35-3.02,3.02,1.35,3.02,3.02,3.02,3.02-1.35,3.02-3.02Z"/><path d="M58.67,110.04c0-1.67-1.35-3.02-3.02-3.02s-3.02,1.35-3.02,3.02,1.35,3.02,3.02,3.02,3.02-1.35,3.02-3.02Z"/><circle cx="55.64" cy="122.13" r="3.02"/><circle cx="55.64" cy="128.17" r="3.02"/><circle cx="55.64" cy="134.22" r="3.02"/><path d="M61.69,100.98c-1.67,0-3.02,1.35-3.02,3.02s1.35,3.02,3.02,3.02,3.02-1.35,3.02-3.02-1.35-3.02-3.02-3.02Z"/><circle cx="61.69" cy="122.13" r="3.02"/><circle cx="61.69" cy="128.17" r="3.02"/><circle cx="61.69" cy="134.22" r="3.02"/><circle cx="61.69" cy="140.26" r="3.02"/><path d="M70.75,110.04c0-1.67-1.35-3.02-3.02-3.02s-3.02,1.35-3.02,3.02,1.35,3.02,3.02,3.02,3.02-1.35,3.02-3.02Z"/><circle cx="67.73" cy="122.13" r="3.02"/><circle cx="67.73" cy="128.17" r="3.02"/><circle cx="67.73" cy="134.22" r="3.02"/><circle cx="67.73" cy="140.26" r="3.02"/><path d="M73.78,100.98c-1.67,0-3.02,1.35-3.02,3.02s1.35,3.02,3.02,3.02,3.02-1.35,3.02-3.02-1.35-3.02-3.02-3.02Z"/><circle cx="73.78" cy="122.13" r="3.02"/><circle cx="73.78" cy="128.17" r="3.02"/><circle cx="73.78" cy="134.22" r="3.02"/><circle cx="73.78" cy="140.26" r="3.02"/><path d="M82.84,110.04c0-1.67-1.35-3.02-3.02-3.02s-3.02,1.35-3.02,3.02,1.35,3.02,3.02,3.02,3.02-1.35,3.02-3.02Z"/><path d="M76.8,122.13c0,1.67,1.35,3.02,3.02,3.02s3.02-1.35,3.02-3.02-1.35-3.02-3.02-3.02-3.02,1.35-3.02,3.02Z"/><path d="M76.8,128.17c0,1.67,1.35,3.02,3.02,3.02s3.02-1.35,3.02-3.02-1.35-3.02-3.02-3.02-3.02,1.35-3.02,3.02Z"/><path d="M82.84,134.22c0-1.67-1.35-3.02-3.02-3.02s-3.02,1.35-3.02,3.02,1.35,3.02,3.02,3.02,3.02-1.35,3.02-3.02Z"/><path d="M82.84,140.26c0-1.67-1.35-3.02-3.02-3.02s-3.02,1.35-3.02,3.02,1.35,3.02,3.02,3.02,3.02-1.35,3.02-3.02Z"/><path d="M85.86,100.98c-1.67,0-3.02,1.35-3.02,3.02s1.35,3.02,3.02,3.02,3.02-1.35,3.02-3.02-1.35-3.02-3.02-3.02Z"/><circle cx="85.86" cy="122.13" r="3.02"/><circle cx="85.86" cy="128.17" r="3.02"/><circle cx="85.86" cy="134.22" r="3.02"/><circle cx="85.86" cy="140.26" r="3.02"/><path d="M94.93,110.04c0-1.67-1.35-3.02-3.02-3.02s-3.02,1.35-3.02,3.02,1.35,3.02,3.02,3.02,3.02-1.35,3.02-3.02Z"/><circle cx="91.91" cy="122.13" r="3.02"/><circle cx="91.91" cy="128.17" r="3.02"/><circle cx="91.91" cy="134.22" r="3.02"/><circle cx="91.91" cy="140.26" r="3.02"/><path d="M97.95,100.98c-1.67,0-3.02,1.35-3.02,3.02s1.35,3.02,3.02,3.02,3.02-1.35,3.02-3.02-1.35-3.02-3.02-3.02Z"/><circle cx="97.95" cy="122.13" r="3.02"/><circle cx="97.95" cy="128.17" r="3.02"/><circle cx="97.95" cy="134.22" r="3.02"/><path d="M131.2,104h0v-6.04h0c0-.74-.28-1.41-.72-1.94l.02-.02-6.41-6.41-.02,.02c-.53-.44-1.2-.72-1.94-.72h-9.07v-9.07c0-.74-.28-1.41-.72-1.93l.02-.02-12.27-12.27c-.55-.55-1.3-.89-2.14-.89H55.64c-.83,0-1.59,.34-2.14,.89l-12.27,12.27,.02,.02c-.44,.53-.72,1.19-.72,1.93v36.27h0v18.2h0c.02,.82,.36,1.56,.92,2.1l-.04,.04,12.09,12.09,.04-.04c.54,.53,1.28,.85,2.1,.85h42.31c1.04,0,1.96-.53,2.51-1.33l5.23-5.23c.32-.22,.6-.5,.82-.82l5.23-5.23c.8-.54,1.33-1.46,1.33-2.51v-9.07h9.07c.74,0,1.41-.28,1.94-.72l.02,.02,.18-.18h0l6.23-6.23-.02-.02c.44-.53,.72-1.2,.72-1.94h0v-6.04h0v-6.04h0Zm-10.32,15.11h-7.81v-3.02h0v-21.15h7.81l4.27,4.27v15.63l-4.27,4.27Zm-20.12,20.04c-.44-1.12-1.53-1.91-2.8-1.91-1.67,0-3.02,1.35-3.02,3.02,0,1.28,.79,2.36,1.91,2.8l-.22,.22H56.83l-.18-.18c1.18-.41,2.02-1.52,2.02-2.84,0-1.67-1.35-3.02-3.02-3.02-1.32,0-2.43,.85-2.84,2.02l-.74-.74c-.2-.28-.44-.53-.73-.73l-.74-.74c1.18-.41,2.02-1.52,2.02-2.84,0-1.67-1.35-3.02-3.02-3.02-1.32,0-2.43,.85-2.84,2.02l-.18-.18v-16.95c0,1.67,1.35,3.02,3.02,3.02s3.02-1.35,3.02-3.02c0,1.67,1.35,3.02,3.02,3.02s3.02-1.35,3.02-3.02c0,1.67,1.35,3.02,3.02,3.02s3.02-1.35,3.02-3.02c0,1.67,1.35,3.02,3.02,3.02s3.02-1.35,3.02-3.02c0,1.67,1.35,3.02,3.02,3.02s3.02-1.35,3.02-3.02c0,1.67,1.35,3.02,3.02,3.02s3.02-1.35,3.02-3.02c0,1.67,1.35,3.02,3.02,3.02s3.02-1.35,3.02-3.02c0,1.67,1.35,3.02,3.02,3.02s3.02-1.35,3.02-3.02c0,1.67,1.35,3.02,3.02,3.02s3.02-1.35,3.02-3.02c0,1.67,1.35,3.02,3.02,3.02-1.67,0-3.02,1.35-3.02,3.02s1.35,3.02,3.02,3.02c-1.67,0-3.02,1.35-3.02,3.02s1.35,3.02,3.02,3.02c-1.67,0-3.02,1.35-3.02,3.02,0,1.28,.79,2.36,1.91,2.8l-2.13,2.13ZM56.9,70.75h39.81l9.07,9.07-9.07,9.07H56.9l-9.07-9.07,9.07-9.07Zm47.1,36.27h0c-1.67,0-3.02,1.35-3.02,3.02s1.35,3.02,3.02,3.02c-1.67,0-3.02,1.35-3.02,3.02,0-1.67-1.35-3.02-3.02-3.02s-3.02,1.35-3.02,3.02c0-1.67-1.35-3.02-3.02-3.02s-3.02,1.35-3.02,3.02c0-1.67-1.35-3.02-3.02-3.02s-3.02,1.35-3.02,3.02c0-1.67-1.35-3.02-3.02-3.02s-3.02,1.35-3.02,3.02c0-1.67-1.35-3.02-3.02-3.02s-3.02,1.35-3.02,3.02c0-1.67-1.35-3.02-3.02-3.02s-3.02,1.35-3.02,3.02c0-1.67-1.35-3.02-3.02-3.02s-3.02,1.35-3.02,3.02c0-1.67-1.35-3.02-3.02-3.02s-3.02,1.35-3.02,3.02c0-1.67-1.35-3.02-3.02-3.02s-3.02,1.35-3.02,3.02v-28.97l6.93,6.93c.55,.55,1.3,.89,2.14,.89h42.31c.83,0,1.59-.34,2.14-.89l6.93-6.93v28.97c0-1.67-1.35-3.02-3.02-3.02,1.67,0,3.02-1.35,3.02-3.02s-1.35-3.02-3.02-3.02Zm0,24.18c1.67,0,3.02-1.35,3.02-3.02s-1.35-3.02-3.02-3.02c1.67,0,3.02-1.35,3.02-3.02s-1.35-3.02-3.02-3.02c1.67,0,3.02-1.35,3.02-3.02v16.8l-.22,.22c-.44-1.12-1.53-1.91-2.8-1.91Z"/></svg>