<?xml version="1.0" encoding="UTF-8"?>
<svg id="Calque_2" data-name="Calque 2" xmlns="http://www.w3.org/2000/svg" viewBox="0 0 328.43183 72">
  <defs>
    <style>
      .cls-1 {
        fill: #1d1d1b;
      }
    </style>
  </defs>
  <g id="Calque_1-2" data-name="Calque 1">
    <g>
      <path class="cls-1" d="M222.45477,65.27583c-.27116,0-.29063,0-.57847,.01532l-.0306-.03335c.01532-.54231,.0306-1.12494,.02504-1.62274-.11818,0-.24472-.00416-.48112-.00416-.40045,0-.83986,.00416-1.19304,.00836-.00556,.91769,.00976,1.24032,.03615,1.60322l-.02639,.03335c-.28087,0-.29619,0-.57847,.01532l-.0306-.03335c.02088-.47416,.02504-.72028,.02504-2.18308,0-.65077-.01392-.88158-.02919-1.17081l.02919-.03335c.2614-.00556,.32259-.00556,.56871-.01392l.02644,.03335c-.00556,.28367-.01532,.67997-.01532,1.34046,.2656,.00416,.40881,.00972,.74252,.00972,.47,0,.68553-.00556,.92609-.01528-.00972-.91633-.00972-1.02203-.03615-1.32098l.02644-.03335c.27667-.00556,.31703-.00556,.56871-.01392l.02504,.03335c-.01532,.4686-.01948,.77176-.01948,1.61578,0,.93581,.01948,1.29315,.05003,1.73672l-.03055,.03335Z"/>
      <path class="cls-1" d="M225.38924,63.80416c0-.20161,0-.4686-.0348-.6021-.10706-.37682-.47692-.4978-.85514-.4978-.30311,0-.6007,.06259-.88713,.15994l-.0306,.02919c-.00416,.1001-.00416,.1293-.01528,.35178l.04031,.02504c.21692-.08758,.44637-.18493,.78007-.18493,.25444,0,.37266,.09179,.42409,.17937,.04727,.07647,.04727,.16825,.04727,.29895l-.08758,.00972c-.92189,.10015-1.4962,.30871-1.4962,.95388,0,.47836,.35878,.80651,.87046,.80651,.38934,0,.62018-.17241,.71752-.24612l-.0042,.17521,.01948,.02919c.2364-.01112,.27672-.01668,.51728-.02088l.02639-.02504c-.02639-.31283-.03195-.36706-.03195-.9636v-.47832Zm-.52699,.11678v.80511c-.05563,.04867-.24056,.21137-.55759,.21137-.48668,0-.48668-.41437-.48668-.43661,0-.43245,.47972-.4978,.99836-.57151l.04591-.00836Z"/>
      <path class="cls-1" d="M228.59584,62.78183c-.00976,.3671-.01532,.70916-.01532,1.0999,0,.59374,.01532,.95108,.02504,1.15689,0,.06815,.00556,.13626,.01112,.20441l-.02084,.02919c-.24612,.00416-.28648,.00972-.52284,.01948l-.0306-.02919,.00556-.20305c-.11262,.07651-.38518,.27536-.80371,.27536-.20025,0-.41993-.04311-.58403-.16689-.32815-.25028-.32815-.66045-.3337-1.03591v-.29895c-.00972-.68969-.00972-.76755-.02504-1.02755l.02504-.0334c.24056-.00556,.28643-.00556,.52699-.02364l.032,.03335-.02088,1.05539c0,.13074-.00556,.22804,0,.45889,.0042,.20441,.01672,.63686,.53255,.63686,.30175,0,.51728-.15854,.64106-.25032,.00416-.26,.00416-.48388,.00416-.762,0-.67021-.00416-.80647-.03615-1.11934l.032-.03475c.23496-.00416,.29059-.00416,.52699-.01808l.0306,.03335Z"/>
      <path class="cls-1" d="M230.72066,64.89482c-.01532,.15854-.01532,.19189-.01948,.33375l-.02644,.02919c-.10706,.02364-.19465,.04311-.38378,.04311-.12374,0-.44497,0-.60486-.25028-.09179-.14186-.09179-.25728-.09179-.82599l.00976-1.0623c-.17937,0-.18357,.00416-.3685,.00972l-.01943-.02779c.00972-.15438,.00972-.19329,.00972-.34902l.0306-.02919c.11262,0,.17797,.00556,.34762,0-.0042-.10015-.0042-.20581-.0042-.30731-.00556-.09314-.00972-.18353-.01528-.27531l.02504-.0334c.2308-.05419,.28783-.06811,.52284-.13486l.03475,.02224c-.01392,.32123-.01948,.38378-.01948,.7342,.21552-.00556,.27672-.00556,.56871-.01532l.02504,.02919c-.00972,.12654-.01528,.17941-.01528,.34486l-.02504,.02639c-.25588-.00416-.28783-.00692-.55899-.00692l-.00972,.89545c.00556,.05843,.00556,.3351,.00556,.40045,0,.35322,.04587,.46304,.30171,.46304,.1071,0,.18913-.02364,.24612-.04311l.0348,.02919Z"/>
      <path class="cls-1" d="M233.466,64.66418c-.06671,.05143-.17937,.13906-.36846,.21137-.14322,.04863-.29755,.07091-.44497,.07091-.15989,0-.45188-.02228-.66185-.26004-.17381-.19605-.18913-.43245-.19329-.60206,.83846-.0042,.97752-.0042,1.77703,0l.0348-.02924c.00556-.21132,.01528-.68969-.27531-1.01923-.15438-.17241-.43525-.3309-.84126-.3309-.67021,0-1.24312,.43801-1.24312,1.33626,0,.83846,.52699,1.29315,1.36686,1.29315,.45469,0,.7328-.14046,.82039-.18353l.02919-.0348c.01116-.18633,.01532-.23636,.04176-.42965l-.04176-.02224Zm-.38373-.95113c-.4714,.0042-.66605,.00976-1.28483,.0042,.05143-.48252,.38794-.66465,.67577-.66465,.22944,0,.45609,.10982,.55759,.37402,.04031,.11126,.04727,.21833,.05147,.28643"/>
      <path class="cls-1" d="M238.35238,64.87911c-.01532,.16549-.01532,.19885-.02644,.36294l-.03475,.03335c-.9984,0-1.15689,.00556-2.13025,.01532l-.02639-.032c.01528-.38378,.03055-.64377,.03055-1.52675,0-.80927,0-1.27231-.03615-1.8285l.032-.03335c1.00812-.0056,1.20836-.0056,2.15109-.01252l.0306,.03195c-.01668,.14462-.02639,.20301-.03615,.37546l-.0306,.03335c-.66049-.01808-.88158-.01808-1.53091-.02364-.01672,.44497-.01672,.58538-.01672,1.02895,.6313,.0028,.82599,0,1.45033-.01112l.02499,.0334c-.02084,.16961-.02084,.21828-.02499,.37126l-.032,.03475c-.59234-.01532-.72168-.01532-1.41833-.01532-.00972,.56039-.00556,.69665,0,1.15413,.77451,0,.93305,0,1.59354-.02504l.0306,.03335Z"/>
      <path class="cls-1" d="M241.04633,64.70225c-.02088,.20581-.02644,.23084-.04036,.42969l-.03615,.03335c-.14878,.06815-.34762,.16549-.70776,.16549-.77311,0-1.27507-.52699-1.27507-1.27927,0-.76755,.49224-1.34738,1.28619-1.34738,.33235,0,.56735,.1015,.70085,.15573l.02084,.03335c-.02084,.17245-.02504,.2364-.03615,.38102l-.04031,.01948c-.16965-.11682-.3643-.18913-.56871-.18913-.42549,0-.79955,.30871-.79955,.92469,0,.65769,.3963,.89409,.79399,.89409,.34762,0,.56315-.16825,.66185-.24056l.04036,.01943Z"/>
      <path class="cls-1" d="M244.09788,63.98341c-.00972-.33791-.07647-.67717-.31147-.93165-.22524-.24056-.56871-.34762-.91769-.34762-.51172,0-.80791,.19885-.95113,.33791-.34482,.32259-.35458,.79535-.35458,.98028,0,.15854,.00556,.65077,.35458,.98308,.16269,.15994,.45469,.32539,.91633,.32539,.35738,0,.66049-.08343,.88578-.29619,.16825-.15989,.27667-.34762,.3323-.58258,.03615-.14602,.04587-.30591,.04587-.4686m-.55755,.01943c.00556,.10015,0,.42413-.11822,.64106-.14737,.26415-.3949,.32259-.58398,.32259-.1015,0-.20861-.01948-.30175-.06259-.40461-.19189-.41021-.67993-.41021-.87462,0-.20161,.01672-.48112,.15438-.67717,.17937-.27116,.4658-.28087,.56315-.28087,.28643,0,.45053,.12514,.54923,.27531,.12654,.21277,.14742,.53535,.14742,.65629"/>
      <path class="cls-1" d="M245.466,65.2718c-.24612,.0042-.29619,.00976-.53815,.01948l-.02504-.03335c.01116-.34346,.02504-.77727,.02504-1.70476,0-.66605,0-1.37937-.05003-1.99811l.02499-.02644c.25032-.04031,.30315-.04867,.55899-.1015l.02919,.03335c-.03475,.6313-.03475,1.26675-.03475,1.90081,0,1.05539,.01532,1.42249,.04031,1.88133l-.03055,.02919Z"/>
      <path class="cls-1" d="M248.50711,64.66418c-.06535,.05143-.17797,.13906-.36706,.21137-.14322,.04863-.29759,.07091-.44637,.07091-.15849,0-.45053-.02228-.66049-.26004-.17381-.19605-.18909-.43245-.19465-.60206,.83986-.0042,.97892-.0042,1.77703,0l.03615-.02924c.00556-.21132,.01532-.68969-.27667-1.01923-.15438-.17241-.43525-.3309-.83986-.3309-.67161,0-1.24452,.43801-1.24452,1.33626,0,.83846,.52699,1.29315,1.36686,1.29315,.45609,0,.7328-.14046,.81903-.18353l.03055-.0348c.01116-.18633,.01672-.23636,.04176-.42965l-.04176-.02224Zm-.38373-.95113c-.47,.0042-.66469,.00976-1.28483,.0042,.05007-.48252,.38934-.66465,.67577-.66465,.22944,0,.45609,.10982,.55899,.37402,.04031,.11126,.04587,.21833,.05007,.28643"/>
      <path class="cls-1" d="M252.49803,63.34583c.37402,.15578,.87042,.35738,.87042,.97616,0,.53951-.42549,1.02615-1.31678,1.02615-.54231,0-.89129-.15433-1.01367-.21272l-.02084-.0334c.02084-.16821,.02499-.26,.04171-.44493l.05143-.01668c.12794,.08203,.42409,.28363,.90105,.28363,.52699,0,.74808-.25444,.74808-.54367,0-.33931-.29755-.4686-.6299-.58958l-.25584-.10706c-.36434-.15989-.85098-.3671-.85098-.95664,0-.17661,.05143-.36014,.15849-.50476,.2364-.31843,.66049-.42549,1.07627-.42549,.40461,0,.64933,.07371,.92189,.15573l.02504,.03891c-.02088,.18217-.02504,.25032-.04036,.42549l-.04171,.01672c-.21968-.10706-.46024-.22108-.84402-.22108-.42549,0-.69245,.18629-.69245,.47276,0,.21692,.15433,.31843,.2614,.38098,.06535,.03755,.08623,.04867,.3949,.17381l.25588,.10566Z"/>
      <path class="cls-1" d="M254.72045,62.76282l-.03615-.02919c-.22944,.04447-.28648,.05839-.53675,.0973l-.02644,.02924c.06119,.54783,.06119,.88573,.06675,1.63381,0,.28367,.00556,.57011,.00556,.85374,0,.49364-.01112,.79679-.02084,1.09018l.02504,.02919c.17937-.0042,.35874-.00976,.53811-.01392l.0306-.02919c-.02644-.45328-.03615-.57847-.04031-1.15829,.07231,.00556,.1321,.00976,.2308,.00976,1.07902,0,1.60742-.64102,1.60742-1.38773,0-.68273-.45609-1.18329-1.10682-1.18329-.3991,0-.64522,.18213-.74672,.26l.00976-.20161Zm0,2.14133c-.0056-.27947-.00976-.56315-.00976-.84958,0-.24472,.00416-.49084,.00976-.74252,.11818-.07787,.31147-.20161,.58954-.20161,.40881,0,.69109,.30867,.69109,.81067,0,.59234-.39074,.99696-1.06511,.99696-.08763,0-.14882-.00972-.21552-.01392"/>
      <path class="cls-1" d="M259.46352,64.66418c-.06675,.05143-.17937,.13906-.36986,.21137-.14322,.04863-.29619,.07091-.44497,.07091-.15849,0-.45053-.02228-.66049-.26004-.17517-.19605-.18909-.43245-.19465-.60206,.83986-.0042,.97752-.0042,1.77703,0l.03615-.02924c.0042-.21132,.01392-.68969-.27667-1.01923-.15438-.17241-.43525-.3309-.83986-.3309-.67161,0-1.24452,.43801-1.24452,1.33626,0,.83846,.52699,1.29315,1.36686,1.29315,.45609,0,.7328-.14046,.82039-.18353l.0306-.0348c.00976-.18633,.01532-.23636,.04036-.42965l-.04036-.02224Zm-.41017-2.96872c-.09734,.00556-.19469,.00556-.29203,.00556-.0973,0-.18909,0-.30171-.00556l-.032,.02504c-.11262,.31287-.26004,.62154-.31147,.73836l.02088,.03335c.17797,0,.23496,0,.37402,.00416l.03475-.01943c.23084-.35182,.27672-.41717,.52839-.74252l-.02084-.03895Zm.02504,2.01759c-.47,.0042-.66469,.00976-1.28483,.0042,.05143-.48252,.38934-.66465,.67717-.66465,.22944,0,.45469,.10982,.55619,.37402,.04171,.11126,.04727,.21833,.05147,.28643"/>
      <path class="cls-1" d="M262.31032,64.70225c-.02088,.20581-.02504,.23084-.04036,.42969l-.03615,.03335c-.14878,.06815-.34762,.16549-.70776,.16549-.77311,0-1.27507-.52699-1.27507-1.27927,0-.76755,.49224-1.34738,1.28619-1.34738,.33235,0,.56875,.1015,.70085,.15573l.02084,.03335c-.02084,.17245-.02504,.2364-.03475,.38102l-.04031,.01948c-.17105-.11682-.36434-.18913-.56871-.18913-.42553,0-.79955,.30871-.79955,.92469,0,.65769,.39349,.89409,.79395,.89409,.34762,0,.56315-.16825,.66049-.24056l.04036,.01943Z"/>
      <path class="cls-1" d="M263.52947,62.06257c-.26144,.00972-.31843,.01392-.56875,.03891l-.03055-.02919c.00416-.06115,.00416-.1293,.00416-.19189,0-.08758-.00416-.16545-.00976-.2628l.03615-.02639c.267-.02088,.31287-.02644,.56875-.05007l.03055,.02919c-.00556,.19885-.00556,.24612,0,.46024l-.03055,.032Zm-.00556,3.20923c-.267,.0042-.30731,.0042-.55759,.01948l-.02644-.03335c.01528-.25584,.032-.47972,.032-1.01507,0-.92049-.01672-1.0929-.05147-1.37937l.02504-.03335c.21968-.03475,.29755-.04451,.55343-.09594l.05143,.02919c-.01528,.25028-.032,.51032-.032,1.13185,0,.89825,.01116,1.01923,.032,1.34738l-.02639,.02919Z"/>
      <path class="cls-1" d="M266.42795,63.80416c0-.20161,0-.4686-.03615-.6021-.1071-.37682-.47696-.4978-.85518-.4978-.30171,0-.5993,.06259-.88573,.15994l-.032,.02919c-.00416,.1001-.00416,.1293-.01388,.35178l.04031,.02504c.21692-.08758,.44637-.18493,.78007-.18493,.25444,0,.37266,.09179,.42409,.17937,.04587,.07647,.04587,.16825,.04587,.29895l-.08618,.00972c-.92189,.10015-1.4962,.30871-1.4962,.95388,0,.47836,.35878,.80651,.87046,.80651,.38934,0,.62018-.17241,.71752-.24612l-.0056,.17521,.01948,.02919c.2364-.01112,.27812-.01668,.51868-.02088l.02499-.02504c-.02499-.31283-.03055-.36706-.03055-.9636v-.47832Zm-.52699,.11678v.80511c-.05703,.04867-.24056,.21137-.55899,.21137-.48668,0-.48668-.41437-.48668-.43661,0-.43245,.48112-.4978,.99976-.57151l.04591-.00836Z"/>
      <path class="cls-1" d="M267.92385,65.2718c-.24612,.0042-.29759,.00976-.53815,.01948l-.02504-.03335c.00976-.34346,.02504-.77727,.02504-1.70476,0-.66605,0-1.37937-.05143-1.99811l.02639-.02644c.25168-.04031,.30175-.04867,.55759-.1015l.0306,.03335c-.03615,.6313-.03615,1.26675-.03615,1.90081,0,1.05539,.01532,1.42249,.04036,1.88133l-.02919,.02919Z"/>
      <path class="cls-1" d="M269.45005,62.06257c-.26144,.00972-.31707,.01392-.56875,.03891l-.03055-.02919c.00556-.06115,.00556-.1293,.00556-.19189,0-.08758-.00556-.16545-.01116-.2628l.03615-.02639c.2656-.02088,.31147-.02644,.56875-.05007l.03055,.02919c-.00556,.19885-.00556,.24612,0,.46024l-.03055,.032Zm-.00556,3.20923c-.2656,.0042-.30731,.0042-.55899,.01948l-.02364-.03335c.01388-.25584,.02919-.47972,.02919-1.01507,0-.92049-.01532-1.0929-.05007-1.37937l.02504-.03335c.21968-.03475,.29755-.04451,.55343-.09594l.05003,.02919c-.01388,.25028-.0306,.51032-.0306,1.13185,0,.89825,.01116,1.01923,.0306,1.34738l-.02499,.02919Z"/>
      <path class="cls-1" d="M271.47311,63.81011c.20436,.06259,.67021,.21137,.67021,.72308,0,.19189-.07651,.41017-.28507,.57011-.27251,.21552-.63686,.2308-.82039,.2308-.27672,0-.50752-.04867-.70221-.12098l-.07507-.02919-.02784-.04311c.02088-.18769,.02088-.21132,.0306-.40601l.05287-.01252c.09174,.06535,.31563,.23084,.71052,.23084,.40601,0,.55343-.21277,.55343-.36154,0-.22108-.21973-.29479-.53395-.39209l-.16269-.05287c-.20997-.06255-.67021-.20161-.67021-.6994,0-.4964,.46024-.74252,1.03451-.74252,.37822,0,.64517,.1001,.73556,.13486l.02644,.0334c-.01948,.17937-.02644,.19885-.03895,.38098l-.04727,.01948c-.1279-.07787-.32815-.19189-.66045-.19189-.07231,0-.14462,.00416-.21973,.02224-.15573,.04036-.28227,.14046-.28227,.29063,0,.20717,.20997,.26976,.52699,.36154l.18497,.05419Z"/>
      <path class="cls-1" d="M274.9451,64.66418c-.06671,.05143-.17937,.13906-.36846,.21137-.14322,.04863-.29755,.07091-.44497,.07091-.15989,0-.45053-.02228-.66325-.26004-.17241-.19605-.18773-.43245-.19329-.60206,.84126-.0042,.97892-.0042,1.77707,0l.03615-.02924c.00556-.21132,.01528-.68969-.27672-1.01923-.15298-.17241-.43525-.3309-.83986-.3309-.67021,0-1.24312,.43801-1.24312,1.33626,0,.83846,.52564,1.29315,1.36546,1.29315,.45749,0,.7328-.14046,.82043-.18353l.03055-.0348c.01116-.18633,.01392-.23636,.04176-.42965l-.04176-.02224Zm-.40877-2.96872c-.09734,.00556-.19609,.00556-.29203,.00556-.0987,0-.19049,0-.30171-.00556l-.032,.02504c-.11262,.31287-.2614,.62154-.31147,.73836l.01948,.03335c.17937,0,.235,0,.37402,.00416l.03615-.01943c.23084-.35182,.27531-.41717,.52699-.74252l-.01943-.03895Zm.02504,2.01759c-.47,.0042-.66605,.00976-1.28623,.0042,.05147-.48252,.38934-.66465,.67577-.66465,.23084,0,.45609,.10982,.55899,.37402,.04171,.11126,.04587,.21833,.05147,.28643"/>
      <path class="cls-1" d="M277.9515,64.66418c-.06671,.05143-.17937,.13906-.36846,.21137-.14322,.04863-.29755,.07091-.44497,.07091-.15849,0-.45053-.02228-.66185-.26004-.17381-.19605-.18913-.43245-.19329-.60206,.83846-.0042,.97752-.0042,1.77703,0l.0348-.02924c.00556-.21132,.01528-.68969-.27531-1.01923-.15578-.17241-.43665-.3309-.83986-.3309-.67161,0-1.24588,.43801-1.24588,1.33626,0,.83846,.52835,1.29315,1.36821,1.29315,.45609,0,.7328-.14046,.82039-.18353l.02919-.0348c.01116-.18633,.01532-.23636,.04176-.42965l-.04176-.02224Zm-.38373-.95113c-.4728,.0042-.66605,.00976-1.28483,.0042,.05143-.48252,.38934-.66465,.67437-.66465,.23084,0,.45609,.10982,.55899,.37402,.04171,.11126,.04587,.21833,.05147,.28643"/>
      <path class="cls-1" d="M226.64488,67.31778c.02504,.28087,.05143,.57011,.04587,1.16801-.13906-.00832-.19049-.00832-.29755-.00832-.2656,0-.75228,.01388-1.1263,.3309-.21552,.17937-.45053,.51172-.45053,1.03871,0,.7328,.47136,1.24032,1.15133,1.24032,.37402,0,.58398-.15573,.70776-.24332l-.01116,.17937,.03615,.02919c.235-.00972,.29759-.01392,.52284-.01392l.02644-.03615c-.02088-.33095-.04171-.68969-.04171-1.43496,0-.48392,.00556-1.67973,.04171-2.34994l-.03615-.02919c-.23084,.04863-.28227,.05839-.54367,.1001l-.02504,.02919Zm.02504,3.12581c-.07095,.05843-.26144,.21277-.57291,.21277-.26696,0-.43521-.11542-.52839-.21692-.10706-.11958-.18909-.31843-.18909-.59234,0-.43105,.18353-.65769,.29755-.75784,.24472-.21828,.58403-.228,.74252-.228,.10706,0,.16825,.00972,.25588,.01388,.00416,.79259,.00416,.93721-.00556,1.56846"/>
      <path class="cls-1" d="M230.25512,70.42373c-.06671,.05423-.17937,.14046-.36846,.21412-.14462,.04727-.29755,.07231-.44637,.07231-.15849,0-.45048-.02504-.66045-.26-.17381-.19885-.18913-.43525-.19469-.6035,.83986-.00556,.97892-.00556,1.77843,0l.0348-.02919c.00556-.21272,.01528-.68969-.27672-1.01783-.15298-.17241-.43525-.33235-.83986-.33235-.67021,0-1.24312,.43941-1.24312,1.3349,0,.83986,.52699,1.29315,1.36686,1.29315,.45469,0,.7328-.13906,.81903-.18353l.03055-.032c.01116-.18913,.01532-.23776,.04036-.42965l-.04036-.02644Zm-.38373-.94973c-.4714,.0056-.66605,.01116-1.28623,.0056,.05147-.48252,.38934-.66605,.67577-.66605,.23084,0,.45609,.11262,.55899,.37682,.04031,.10982,.04587,.21692,.05147,.28363"/>
      <path class="cls-1" d="M234.24514,69.10856c.37402,.15298,.87042,.35738,.87042,.97336,0,.54091-.42549,1.02895-1.31678,1.02895-.54231,0-.88994-.15433-1.01367-.21412l-.01948-.03335c.01948-.16965,.02504-.25864,.04036-.44221l.05143-.02084c.12794,.08203,.42409,.28503,.90105,.28503,.52699,0,.74808-.25584,.74808-.54507,0-.33786-.29755-.46856-.6313-.58818l-.25584-.10706c-.36294-.15709-.84958-.3657-.84958-.95384,0-.17941,.05143-.36154,.15849-.50756,.2364-.31703,.66049-.42409,1.07627-.42409,.40321,0,.64933,.07231,.92189,.15293l.02504,.03895c-.01948,.18493-.02504,.25028-.04036,.42549l-.04171,.01948c-.21968-.10706-.46164-.22248-.84542-.22248-.42409,0-.69105,.18769-.69105,.47416,0,.21552,.15433,.31563,.2614,.38098,.06535,.03755,.08758,.04587,.39349,.17241l.25728,.10706Z"/>
      <path class="cls-1" d="M238.17301,68.54278c-.00976,.3671-.01532,.70916-.01532,1.0999,0,.59374,.01532,.95108,.02504,1.15829,0,.06811,.00556,.13626,.01112,.20161l-.02084,.032c-.24612,.00416-.28648,.00832-.52284,.01808l-.0306-.02919,.00556-.20305c-.11262,.07651-.38518,.27536-.80371,.27536-.20025,0-.41993-.04311-.58403-.16409-.32815-.25168-.32815-.66049-.3337-1.03591v-.29895c-.00972-.69109-.00972-.76755-.02504-1.02899l.02504-.03475c.24056-.00416,.28643-.00416,.52839-.02364l.0306,.03335-.02088,1.05679c0,.1307-.00556,.22804,0,.45889,.0042,.20301,.01532,.63546,.53255,.63546,.30175,0,.51868-.15854,.64106-.25032,.00416-.26,.00416-.48248,.00416-.762,0-.67021-.00416-.80647-.03615-1.11934l.032-.03335c.23496-.0028,.29199-.0028,.52699-.01948l.0306,.03335Z"/>
      <path class="cls-1" d="M239.69479,67.82419c-.26144,.01112-.31843,.01532-.57011,.04031l-.0306-.02919c.00556-.06395,.00556-.1321,.00556-.19465,0-.08763-.00556-.16269-.00976-.26004l.0348-.02919c.26836-.01808,.31423-.02364,.57011-.04727l.03055,.02919c-.00556,.19745-.00556,.24472,0,.45749l-.03055,.03335Zm-.00556,3.21063c-.267,.0042-.30731,.0042-.55899,.01808l-.02504-.03611c.01528-.25448,.0306-.47556,.0306-1.01232,0-.92189-.01532-1.0943-.05147-1.37797l.02644-.03475c.21968-.03335,.29619-.04311,.55343-.09594l.05003,.02919c-.01528,.24892-.0306,.51172-.0306,1.13325,0,.89689,.01116,1.01923,.0306,1.34462l-.02499,.03195Z"/>
      <path class="cls-1" d="M241.71794,69.57075c.20436,.06259,.67021,.21277,.67021,.72308,0,.19465-.07651,.41157-.28648,.57011-.27251,.21692-.63681,.2308-.82039,.2308-.27531,0-.50612-.04867-.70081-.12098-.02639-.00692-.05143-.01668-.07647-.02919l-.02644-.04311c.02088-.18769,.02088-.21132,.0306-.40321l.05147-.01532c.09174,.06675,.31703,.23084,.71192,.23084,.40461,0,.55203-.21137,.55203-.36154,0-.22108-.21833-.29339-.53119-.39074l-.16405-.05143c-.20997-.06259-.67161-.20441-.67161-.70081s.46164-.74252,1.03451-.74252c.37962,0,.64522,.1015,.73696,.13486l.02644,.032c-.01948,.17937-.02644,.19885-.04031,.38378l-.04727,.01948c-.12654-.07787-.32679-.19469-.65909-.19469-.07231,0-.14462,.00556-.22113,.02504-.15433,.03891-.28087,.14042-.28087,.28923,0,.20717,.20997,.27111,.52699,.3629l.18497,.05143Z"/>
      <path class="cls-1" d="M244.18605,69.57075c.20436,.06259,.67021,.21277,.67021,.72308,0,.19465-.07651,.41157-.28648,.57011-.27111,.21692-.63546,.2308-.81899,.2308-.27672,0-.50752-.04867-.70221-.12098-.02504-.00692-.05143-.01668-.07647-.02919l-.02504-.04311c.01948-.18769,.01948-.21132,.02919-.40321l.05147-.01532c.09314,.06675,.31703,.23084,.71192,.23084,.40461,0,.55343-.21137,.55343-.36154,0-.22108-.21973-.29339-.53259-.39074l-.16405-.05143c-.21137-.06259-.67021-.20441-.67021-.70081s.45884-.74252,1.03451-.74252c.37822,0,.64517,.1015,.73696,.13486l.02504,.032c-.01948,.17937-.02504,.19885-.04031,.38378l-.04591,.01948c-.1279-.07787-.32955-.19469-.66045-.19469-.07231,0-.14326,.00556-.21973,.02504-.15433,.03891-.28227,.14042-.28227,.28923,0,.20717,.20997,.27111,.52699,.3629l.18497,.05143Z"/>
      <path class="cls-1" d="M247.65779,70.42373c-.06671,.05423-.17937,.14046-.36846,.21412-.14322,.04727-.29755,.07231-.44497,.07231-.15989,0-.45188-.02504-.66185-.26-.17381-.19885-.18913-.43525-.19469-.6035,.83986-.00556,.97892-.00556,1.77843,0l.0348-.02919c.00556-.21272,.01528-.68969-.27672-1.01783-.15298-.17241-.43385-.33235-.83986-.33235-.67021,0-1.24312,.43941-1.24312,1.3349,0,.83986,.52564,1.29315,1.36546,1.29315,.45749,0,.7328-.13906,.81903-.18353l.03195-.032c.00976-.18913,.01532-.23776,.04036-.42965l-.04036-.02644Zm-.38373-.94973c-.4714,.0056-.66605,.01116-1.28623,.0056,.05147-.48252,.38934-.66605,.67577-.66605,.23084,0,.45609,.11262,.55899,.37682,.04171,.10982,.04587,.21692,.05147,.28363"/>
      <path class="cls-1" d="M252.70736,69.74418c-.00972-.33651-.07647-.67441-.31283-.93165-.22388-.24056-.56871-.34482-.91633-.34482-.51172,0-.80927,.19465-.95253,.33786-.34342,.32263-.35318,.79399-.35318,.97752,0,.15994,.00556,.65077,.35318,.98448,.16409,.15854,.45609,.32259,.91637,.32259,.35874,0,.66185-.08063,.88573-.29479,.16965-.15709,.27672-.34622,.3337-.58258,.03615-.14462,.04587-.30315,.04587-.4686m-.55755,.01943c.00416,.10015,0,.42553-.11822,.64382-.14878,.2642-.3949,.32259-.58398,.32259-.1029,0-.20997-.02084-.30175-.06535-.40461-.19189-.41021-.67717-.41021-.87182,0-.20165,.01532-.48252,.15438-.67997,.17937-.27116,.4658-.28087,.56315-.28087,.28643,0,.45053,.12654,.54783,.27672,.12794,.21137,.14882,.53395,.14882,.65489"/>
      <path class="cls-1" d="M255.44782,70.46277c-.02088,.20861-.02644,.23084-.04036,.42969l-.03615,.03335c-.15018,.06815-.34902,.16549-.70776,.16549-.77311,0-1.27507-.52699-1.27507-1.27927,0-.76615,.49084-1.34462,1.28619-1.34462,.33235,0,.56875,.10015,.70085,.15298l.02084,.03475c-.02084,.17381-.02504,.235-.03615,.38102l-.04031,.01808c-.16825-.11542-.3643-.18633-.56871-.18633-.42413,0-.79955,.30591-.79955,.92465,0,.65773,.3949,.89269,.79399,.89269,.34762,0,.56451-.16825,.66185-.24192l.04036,.01943Z"/>
      <path class="cls-1" d="M258.02465,70.46277c-.02088,.20861-.02644,.23084-.04176,.42969l-.03615,.03335c-.14878,.06815-.34762,.16549-.70636,.16549-.77311,0-1.27507-.52699-1.27507-1.27927,0-.76615,.49224-1.34462,1.28619-1.34462,.33235,0,.56735,.10015,.70085,.15298l.01943,.03475c-.01943,.17381-.02504,.235-.03615,.38102l-.04031,.01808c-.16965-.11542-.3629-.18633-.56731-.18633-.42549,0-.79955,.30591-.79955,.92465,0,.65773,.39349,.89269,.79259,.89269,.34902,0,.56455-.16825,.66185-.24192l.04176,.01943Z"/>
      <path class="cls-1" d="M259.24303,67.82419c-.26144,.01112-.31707,.01532-.56875,.04031l-.03055-.02919c.00416-.06395,.00416-.1321,.00416-.19465,0-.08763-.00416-.16269-.00836-.26004l.03475-.02919c.2656-.01808,.31287-.02364,.56875-.04727l.03055,.02919c-.00556,.19745-.00556,.24472,0,.45749l-.03055,.03335Zm-.00556,3.21063c-.2656,.0042-.30731,.0042-.55759,.01808l-.02644-.03611c.01528-.25448,.0306-.47556,.0306-1.01232,0-.92189-.01532-1.0943-.05147-1.37797l.02644-.03475c.21968-.03335,.29619-.04311,.55203-.09594l.05143,.02919c-.01528,.24892-.0306,.51172-.0306,1.13325,0,.89689,.01116,1.01923,.0306,1.34462l-.02499,.03195Z"/>
      <path class="cls-1" d="M261.87465,67.31778c.02644,.28087,.05143,.57011,.04727,1.16801-.13906-.00832-.19049-.00832-.29755-.00832-.267,0-.75368,.01388-1.1263,.3309-.21552,.17937-.45193,.51172-.45193,1.03871,0,.7328,.47136,1.24032,1.15273,1.24032,.37402,0,.58398-.15573,.70776-.24332l-.01116,.17937,.03615,.02919c.2364-.00972,.29619-.01392,.52284-.01392l.02504-.03615c-.02088-.33095-.04031-.68969-.04031-1.43496,0-.48392,.00416-1.67973,.04031-2.34994l-.03615-.02919c-.22944,.04863-.28087,.05839-.54227,.1001l-.02644,.02919Zm.02644,3.12581c-.07231,.05843-.26144,.21277-.57431,.21277-.26555,0-.43521-.11542-.52839-.21692-.10566-.11958-.18769-.31843-.18769-.59234,0-.43105,.18493-.65769,.29615-.75784,.24612-.21828,.58403-.228,.74252-.228,.1071,0,.16965,.00972,.25728,.01388,.00416,.79259,.00416,.93721-.00556,1.56846"/>
      <path class="cls-1" d="M265.48544,70.42373c-.06535,.05423-.17937,.14046-.36706,.21412-.14462,.04727-.29895,.07231-.44637,.07231-.15849,0-.45188-.02504-.66049-.26-.17517-.19885-.19049-.43525-.19605-.6035,.84126-.00556,.97892-.00556,1.77707,0l.03615-.02919c.00556-.21272,.01668-.68969-.27531-1.01783-.15438-.17241-.43525-.33235-.83986-.33235-.67161,0-1.24588,.43941-1.24588,1.3349,0,.83986,.52835,1.29315,1.36821,1.29315,.45469,0,.7328-.13906,.81903-.18353l.03055-.032c.01116-.18913,.01532-.23776,.04176-.42965l-.04176-.02644Zm-.38373-.94973c-.4714,.0056-.66605,.01116-1.28623,.0056,.05283-.48252,.38934-.66605,.67717-.66605,.22944,0,.45609,.11262,.55759,.37682,.04031,.10982,.04727,.21692,.05147,.28363"/>
      <path class="cls-1" d="M268.67638,71.03483c-.24612,.0042-.27672,.0042-.51312,.01808l-.03475-.03611c0-.05007,.00556-.1043,.00556-.15713,.00416-.2378,.00416-.47276,.00416-.70916,0-.74252-.00416-.79119-.0306-.89269-.0973-.3671-.38934-.3671-.46164-.3671-.30591,0-.54227,.16825-.67993,.26976-.00556,.83986,.00416,1.27927,.04031,1.84242l-.0306,.03195c-.25028,.0042-.29199,.0042-.53671,.01808l-.02644-.03611c.0042-.2684,.01532-.52839,.01532-.88578,0-.77171-.03615-1.18193-.06119-1.50451l.0306-.03475c.25444-.04311,.30171-.05283,.54367-.09594l.03475,.0334-.00556,.25028c.1335-.08763,.45193-.29895,.90245-.29895,.1279,0,.28643,.01943,.42409,.09174,.1335,.07231,.24192,.18497,.29755,.31427,.06675,.14322,.07091,.28783,.07647,.58818v.56455c.01532,.56591,.02088,.78143,.03755,.9636l-.03195,.03195Z"/>
      <path class="cls-1" d="M270.79633,70.65576c-.01532,.15854-.01532,.19469-.01948,.33375l-.02644,.02781c-.10706,.02502-.19465,.0445-.38378,.0445-.12374,0-.44633,0-.60486-.25028-.09179-.14046-.09179-.25728-.09179-.82459l.00976-1.06095c-.17937,0-.18357,.00416-.3685,.00696l-.01943-.02644c.00972-.15573,.00972-.19465,.00972-.34762l.0306-.02919c.11262,0,.17937,.0028,.34762,0-.0042-.1015-.0042-.20717-.0042-.31007-.00556-.09039-.00972-.18217-.01528-.27531l.02504-.0334c.2308-.05283,.28783-.06811,.52284-.13346l.03475,.02224c-.01532,.31983-.01948,.38098-.01948,.7328,.21412-.0028,.27531-.0028,.56731-.01252l.02784,.02919c-.01112,.12374-.01668,.17797-.01668,.34206l-.02504,.02919c-.25724-.00416-.28783-.00972-.55899-.00972l-.00972,.89545c.00556,.05843,.00556,.33375,.00556,.40185,0,.35182,.04727,.46304,.30171,.46304,.1071,0,.18913-.02364,.24612-.04311l.0348,.02779Z"/>
      <path class="cls-1" d="M273.41406,69.56651c0-.20301,0-.4672-.03615-.6035-.10706-.37542-.47692-.4964-.85514-.4964-.30311,0-.5993,.06259-.88713,.15994l-.0306,.02919c-.00416,.1015-.00416,.1307-.01528,.35178l.04171,.02224c.21552-.08618,.44633-.18213,.77867-.18213,.25584,0,.37266,.09174,.42409,.17937,.04587,.07507,.04587,.16685,.04587,.29895l-.08618,.00832c-.92189,.1029-1.4962,.30871-1.4962,.95669,0,.47692,.36014,.80371,.87186,.80371,.38934,0,.61878-.17241,.71612-.24472l-.0056,.17381,.02088,.02919c.2364-.01112,.27672-.01392,.51728-.01808l.02639-.02504c-.02639-.31563-.0306-.3671-.0306-.965v-.47832Zm-.52835,.11538v.80651c-.05703,.04587-.24056,.21272-.55759,.21272-.48528,0-.48528-.41433-.48528-.43937,0-.43105,.47968-.4978,.99836-.57011l.04451-.00976Z"/>
      <path class="cls-1" d="M274.90941,71.03483c-.24612,.0042-.29759,.00696-.53815,.01808l-.02639-.03611c.01112-.33931,.02639-.77591,.02639-1.702,0-.66465,0-1.37797-.05143-1.99671l.02504-.02919c.25168-.03895,.30451-.04591,.55895-.10155l.0306,.0348c-.03475,.63126-.03475,1.26811-.03475,1.90077,0,1.05679,.01532,1.42389,.04031,1.87997l-.03055,.03195Z"/>
      <path class="cls-1" d="M277.9515,70.42373c-.06671,.05423-.17937,.14046-.36846,.21412-.14322,.04727-.29755,.07231-.44497,.07231-.15849,0-.45053-.02504-.66185-.26-.17381-.19885-.18913-.43525-.19329-.6035,.83846-.00556,.97752-.00556,1.77703,0l.0348-.02919c.00556-.21272,.01528-.68969-.27531-1.01783-.15578-.17241-.43665-.33235-.83986-.33235-.67161,0-1.24588,.43941-1.24588,1.3349,0,.83986,.52835,1.29315,1.36821,1.29315,.45609,0,.7328-.13906,.82039-.18353l.02919-.032c.01116-.18913,.01532-.23776,.04176-.42965l-.04176-.02644Zm-.38373-.94973c-.4728,.0056-.66605,.01116-1.28483,.0056,.05143-.48252,.38934-.66605,.67437-.66605,.23084,0,.45609,.11262,.55899,.37682,.04171,.10982,.04587,.21692,.05147,.28363"/>
      <path class="cls-1" d="M263.10873,50.28896c.88989,.27256,2.91304,.92193,2.91304,3.14253,0,.8371-.3337,1.77983-1.24588,2.47092-1.17773,.94137-2.75595,1.00672-3.55686,1.00672-1.2014,0-2.20116-.20997-3.04518-.52559-.11262-.04036-.22248-.08343-.3351-.12654l-.10986-.18773c.08899-.81623,.08899-.92189,.1335-1.75895l.22248-.06259c.39905,.29339,1.37797,1.00531,3.08965,1.00531,1.75619,0,2.40141-.92189,2.40141-1.56986,0-.965-.95528-1.27787-2.31242-1.6978l-.71192-.2294c-.91077-.27116-2.91168-.88018-2.91168-3.03686s2.00091-3.22455,4.48991-3.22455c1.64633,0,2.80182,.43941,3.20232,.58683l.11122,.14597c-.08899,.77451-.11122,.85934-.17937,1.65329l-.19885,.08483c-.55619-.3351-1.42249-.83706-2.86857-.83706-.31011,0-.62158,.01948-.95528,.10426-.66745,.16689-1.22364,.60766-1.22364,1.25704,0,.89965,.91217,1.17217,2.29155,1.56986l.79955,.2294Z"/>
      <path class="cls-1" d="M278.89329,51.04315c-.04447-1.46556-.3323-2.93116-1.3571-4.04074-.97752-1.04707-2.46536-1.50871-3.97823-1.50871-2.2234,0-3.51239,.85934-4.13532,1.4656-1.4892,1.40301-1.53371,3.45535-1.53371,4.25075,0,.69245,.02224,2.82826,1.53371,4.27298,.71057,.69105,1.97868,1.40437,3.97823,1.40437,1.55734,0,2.86857-.35874,3.84609-1.27923,.73556-.68969,1.20136-1.50731,1.44612-2.53351,.15573-.6285,.20021-1.31954,.20021-2.03151m-2.4236,.08343c.02364,.44081,0,1.84382-.51172,2.78659-.64517,1.15129-1.71172,1.40297-2.53211,1.40297-.44633,0-.91353-.08478-1.31398-.27251-1.75483-.83846-1.77847-2.9534-1.77847-3.7905,0-.88018,.06815-2.09406,.66745-2.952,.77867-1.17357,2.02315-1.21528,2.44588-1.21528,1.24448,0,1.9564,.54367,2.37913,1.19304,.55479,.92189,.64382,2.3249,.64382,2.84769"/>
      <path class="cls-1" d="M255.10381,51.21615c0,.7314-.59239,1.32379-1.32379,1.32379s-1.32234-.59239-1.32234-1.32379c0-.73136,.59094-1.32374,1.32234-1.32374s1.32379,.59239,1.32379,1.32374"/>
      <path class="cls-1" d="M224.64409,42.01203c-.02228,1.61162-.04451,2.59606-.04451,4.06166,0,3.51794,.06675,7.01641,.24472,10.53296l-.11122,.12654c-1.88969-.02084-2.33326,0-4.00187,.06259l-.11122-.12654c.11122-2.95064,.11122-3.64308,.06675-6.46858-.88994-.02084-1.77843-.04171-2.66836-.04171-.86626,0-1.68944,.02088-2.66556,.06259,.02084,3.03542,.04311,3.7891,.17657,6.38511l-.11122,.12654c-1.95644-.02084-2.3569,0-3.97959,.06259l-.11126-.12654c.04451-1.75619,.08903-2.78239,.08903-4.66788,0-5.19351-.1335-7.77009-.24476-9.92674l.1335-.12514c1.93416,0,2.26791,0,3.97959-.06259l.11126,.12514-.04311,5.52862c.77727,0,1.57682,.02088,2.35409,.02088,1.00116,0,1.98008-.02088,2.95755-.04171-.02224-2.47232-.02224-3.07858-.17797-5.44519l.11126-.12514c1.86741,0,2.15665,0,3.93508-.06259l.11126,.12514Z"/>
      <path class="cls-1" d="M237.53475,53.63534c-.84538,.41713-1.84654,.89965-3.46927,.89965-1.33346,0-2.24563-.3977-2.77818-1.15133-.3337-.44077-.3991-.85794-.48944-1.27787l7.18186-.12654,.1335-.14597c-.02224-1.02479-.04451-2.07322-.35598-3.12029-.77867-2.47087-2.49035-2.97423-3.24679-3.14113-.55479-.14597-1.06651-.18909-1.57822-.18909-3.49011,0-5.80249,2.15805-5.80249,5.7803,0,.98444,.17797,2.01063,.53391,2.74343,1.28899,2.82686,4.31334,3.07854,5.91379,3.07854,1.84518,0,2.64609-.31563,3.82385-.75504l.13346-.16685,.15573-2.36521-.15573-.06259Zm-6.7369-3.74879c.06671-.65073,.22244-1.52951,1.06786-2.03151,.267-.16821,.57847-.2308,.88994-.2308,.7328,0,1.17637,.35598,1.42109,.7328,.31147,.46024,.3337,.9636,.3337,1.44472l-3.71259,.08478Z"/>
      <path class="cls-1" d="M246.91574,49.88655c1.2236,.43941,2.93532,1.04567,2.93532,3.34833,0,.14878,0,.29479-.02364,.46304-.3991,2.99231-3.73347,3.2871-5.42295,3.2871-1.62269,0-2.5571-.3351-3.64724-.71192l-.10986-.18913c.08903-1.04563,.10986-1.27647,.15573-2.36521l.19885-.08343c.33375,.25168,.51312,.3977,.88994,.58538,.82314,.3991,1.73391,.58678,2.35685,.58678,1.24452,0,1.75619-.56591,1.75619-1.08874,0-.75504-.97888-1.06791-1.57818-1.25699l-.84542-.29339c-1.04427-.37682-2.88945-1.04707-2.88945-3.28714,0-.83846,.31007-1.46696,.5993-1.84378,1.15689-1.57126,3.33577-1.65469,4.42456-1.65469,1.44472,0,2.35685,.25168,3.40112,.52419l.11126,.12518-.22248,2.28319-.20025,.06255c-.55479-.3351-1.42245-.88018-2.77818-.88018-1.37797,0-1.55734,.69249-1.55734,.94277,0,.58678,.60066,.81623,1.3571,1.06791l1.08878,.37818Z"/>
      <path class="cls-1" d="M280.2436,56.91675c0-.44777,.09454-.64522,.40881-1.29875,.02364-.04867,6.46718-13.76727,6.46718-13.76727,.44077-.91353,.8649-1.78539,1.84378-1.78539,.82459,0,1.44472,.62158,1.44472,1.44612,0,.45469-.14182,.79955-.30171,1.14021,0,0-6.72166,14.24835-6.72582,14.25671-.36986,.74112-.75364,1.50591-1.71728,1.50591-.79675,0-1.41969-.65769-1.41969-1.49755m6.23778-15.46231c-.03895,.07927-6.4811,13.79786-6.4811,13.79786-.35178,.7314-.50196,1.04567-.50196,1.66445,0,1.25839,.95108,2.24423,2.16496,2.24423,1.42529,0,1.97868-1.10962,2.38473-1.91889l6.73274-14.27198c.19049-.40606,.37406-.85098,.37406-1.45864,0-1.2292-.9636-2.1914-2.19144-2.1914-1.44748,0-2.04538,1.23336-2.48199,2.13437"/>
      <path class="cls-1" d="M286.41263,56.91578c0-.44913,.09594-.64657,.41297-1.30427,.02088-.04171,6.46302-13.76031,6.46302-13.76031,.44217-.91217,.8649-1.78543,1.84518-1.78543,.82319,0,1.44472,.62158,1.44472,1.44612,0,.45469-.14322,.79815-.30311,1.14021,0,0-6.69523,14.19276-6.72442,14.25395-.44081,.88293-.82179,1.50867-1.71728,1.50867-.79675,0-1.42109-.65909-1.42109-1.49896m6.23778-15.45951c-.03755,.07791-6.4797,13.79651-6.4797,13.79651-.35182,.7286-.50336,1.04423-.50336,1.66301,0,1.25979,.95108,2.24563,2.16636,2.24563,1.42665,0,1.98148-1.11238,2.38609-1.92305l6.73138-14.26923c.18909-.40461,.37266-.84958,.37266-1.45724,0-1.2292-.96084-2.1928-2.19004-2.1928-1.44748,0-2.04543,1.23476-2.48339,2.13717"/>
      <path class="cls-1" d="M301.37732,52.56493c.61734,0,.86346,.31427,.86346,.94137,0,1.89385-1.23752,3.31634-3.19952,3.31634-1.99119,0-3.37333-1.57958-3.37333-3.60973,0-2.04123,1.37242-3.61109,3.37333-3.61109,1.48228,0,2.69896,.698,2.69896,1.38353,0,.42273-.2656,.68689-.60902,.68689-.66605,0-.80511-.71608-2.08994-.71608-1.2264,0-1.84378,1.06931-1.84378,2.25675,0,1.19585,.5979,2.25539,1.84378,2.25539,.77591,0,1.66861-.43105,1.66861-1.54899h-.99976c-.40325,0-.68829-.28507-.68829-.68693,0-.41157,.31423-.66745,.68829-.66745h1.66721Z"/>
      <path class="cls-1" d="M302.76959,50.57357c0-.49084,.24472-.85374,.76475-.85374h2.43336c.47136,0,.69665,.3337,.69665,.67717,0,.3337-.2364,.67717-.69665,.67717h-1.727v1.43081h1.61018c.47972,0,.71472,.3351,.71472,.67857,0,.33235-.24472,.67717-.71472,.67717h-1.61018v1.4906h1.81598c.47,0,.69525,.33235,.69525,.67717,0,.33375-.235,.67581-.69525,.67581h-2.53206c-.43109,0-.75504-.29339-.75504-.7342v-5.39652Z"/>
      <path class="cls-1" d="M307.25241,50.42606c0-.48944,.31423-.76475,.73556-.76475,.18633,0,.49084,.14602,.61878,.32399l3.10913,4.14924h.01948v-3.70848c0-.48944,.31423-.76475,.73556-.76475,.42269,0,.73696,.27531,.73696,.76475v5.57313c0,.48944-.31427,.76615-.73696,.76615-.18493,0-.47972-.14878-.61598-.32539l-3.11053-4.10057h-.02088v3.6598c0,.48944-.31287,.76615-.73556,.76615-.42133,0-.73556-.27672-.73556-.76615v-5.57313Z"/>
      <path class="cls-1" d="M316.71831,48.10129l.07927,.03891c.16685,.08903,.27531,.24612,.27531,.39214,0,.34486-.22524,.71612-.52003,.71612-.19605,0-.10846,0-.39214-.09734l-1.09986-.43105c-.27391-.09875-.40045-.29479-.40045-.57987,0-.26415,.23496-.60902,.52975-.60902,.10706,0,.22388,.04031,.37126,.1001l1.15689,.47Zm-2.6864,2.47227c0-.49084,.24472-.85374,.76475-.85374h2.43196c.47136,0,.69805,.3337,.69805,.67717,0,.3337-.2364,.67717-.69805,.67717h-1.7256v1.43081h1.60882c.48108,0,.71608,.3351,.71608,.67857,0,.33235-.24472,.67717-.71608,.67717h-1.60882v1.4906h1.81458c.4714,0,.69665,.33235,.69665,.67717,0,.33375-.235,.67581-.69665,.67581h-2.53066c-.43109,0-.75504-.29339-.75504-.7342v-5.39652Z"/>
      <path class="cls-1" d="M318.23008,50.73112c-.04867-.1279-.06955-.22524-.06955-.3629,0-.41297,.3643-.70636,.75644-.70636,.3337,0,.53951,.21552,.66745,.47972l1.52119,4.08109,1.51979-4.08109c.12794-.2642,.3337-.47972,.66745-.47972,.39209,0,.75504,.29339,.75504,.70636,0,.13766-.01948,.235-.06955,.3629l-2.14689,5.46467c-.12934,.31287-.29479,.56871-.72584,.56871-.43245,0-.5993-.25584-.72584-.56871l-2.14969-5.46467Z"/>
      <path class="cls-1" d="M324.44949,50.57357c0-.49084,.24472-.85374,.76475-.85374h2.43336c.47136,0,.69665,.3337,.69665,.67717,0,.3337-.2364,.67717-.69665,.67717h-1.727v1.43081h1.61018c.47972,0,.71612,.3351,.71612,.67857,0,.33235-.24612,.67717-.71612,.67717h-1.61018v1.4906h1.81598c.47,0,.69525,.33235,.69525,.67717,0,.33375-.235,.67581-.69525,.67581h-2.53206c-.43109,0-.75504-.29339-.75504-.7342v-5.39652Z"/>
      <path class="cls-1" d="M127.06039,59.19358c.04171-2.87833,1.54347-4.7555,3.87949-4.7555,2.58634,0,3.71263,1.79375,3.75435,4.7555h-7.63383Zm7.75897,5.79833c-.54231,2.12745-1.9606,2.7949-3.58749,2.7949-2.50287,0-4.12976-1.50171-4.21319-5.13092h13.01503c.08343-.70916,.12514-1.46,.12514-2.25259,0-6.17379-3.67092-10.09499-9.09383-10.09499-5.79833,0-9.6361,4.12976-9.6361,10.72073s3.46231,10.88754,9.71953,10.88754c5.33949,0,7.80069-3.33717,8.46809-6.34064l-4.79717-.58403Zm-30.70208-14.14129h-5.9652l7.50865,20.48193h5.04749l7.50865-20.48193h-5.75666l-2.75315,8.96865c-.58403,1.91889-.91773,3.2955-1.3349,5.08921h-.08343c-.41713-1.7937-.75084-3.17032-1.33486-5.08921l-2.8366-8.96865Zm-13.38905-2.12745l1.1263-2.21088-9.80298-6.34064-2.00229,4.38004,10.67897,4.17148Zm-8.84353,10.47041c.04171-2.87833,1.54345-4.7555,3.87949-4.7555,2.58632,0,3.71261,1.79375,3.75433,4.7555h-7.63381Zm7.75895,5.79833c-.54229,2.12745-1.9606,2.7949-3.58747,2.7949-2.50289,0-4.12976-1.50171-4.21319-5.13092h13.01501c.08343-.70916,.12514-1.46,.12514-2.25259,0-6.17379-3.6709-10.09499-9.09381-10.09499-5.79835,0-9.63612,4.12976-9.63612,10.72073s3.46233,10.88754,9.71955,10.88754c5.33949,0,7.80066-3.33717,8.46809-6.34064l-4.7972-.58403Zm-31.70323-11.47156c-.04171-.87597-.08343-1.83542-.16685-2.66972h-5.29777c.12514,2.08574,.20857,4.46347,.20857,6.46578v14.01615h5.58979v-11.34638c0-3.83777,1.9606-5.08921,3.79604-5.08921,1.16801,0,2.00231,.50056,2.41946,1.16801,.50058,.75088,.70914,1.71028,.70914,3.17032v12.09726h5.58979v-13.0567c0-2.2943-.50058-4.04634-1.46002-5.42291-1.08458-1.54347-2.79488-2.54463-5.71493-2.54463-2.21088,0-4.71377,1.25148-5.58979,3.21203h-.08343Zm-24.06802,5.67323c.04171-2.87833,1.54343-4.7555,3.87946-4.7555,2.58632,0,3.71261,1.79375,3.75433,4.7555h-7.63379Zm7.75893,5.79833c-.54229,2.12745-1.96058,2.7949-3.58745,2.7949-2.50289,0-4.12976-1.50171-4.21321-5.13092h13.01501c.08345-.70916,.12516-1.46,.12516-2.25259,0-6.17379-3.6709-10.09499-9.09383-10.09499-5.79835,0-9.6361,4.12976-9.6361,10.72073s3.46231,10.88754,9.71953,10.88754c5.33951,0,7.80066-3.33717,8.46812-6.34064l-4.79722-.58403Zm-19.23049,6.34064v-16.4773H11.68013v4.42176h5.25606v.37542c0,4.21319-1.54345,7.25837-5.13092,7.25837-3.25375,0-5.3812-2.87833-5.3812-10.38698,0-7.55036,2.00231-10.42869,5.54807-10.42869,2.71146,0,4.04632,1.75203,4.33833,4.96407l5.9652-.8343c-.25028-4.00463-2.96173-9.21897-10.22011-9.21897-7.84238,0-12.05557,5.84009-12.05557,15.5179,0,10.30355,4.83891,15.47619,11.42983,15.47619,2.96176,0,5.50636-1.58514,6.54923-4.33833h.08343l.66743,3.67088h3.67092Z"/>
      <path class="cls-1" d="M135.71291,14.80874c0,5.67319-1.50171,9.88638-5.84009,9.88638h-3.50403V4.92231h2.92004c5.29777,0,6.42407,4.92236,6.42407,9.88642m6.29893-.5006c0-5.88176-1.9606-11.42985-7.17495-13.47388-1.37657-.54227-3.00347-.83426-4.92236-.83426h-9.76124V29.61747h9.71953c1.91889,0,3.50407-.25028,4.88064-.75088,5.42291-1.9606,7.25837-7.46694,7.25837-14.55846m-36.37389,5.04749h-6.13208l1.58516-6.00694c.50058-1.83542,1.04287-4.00458,1.50173-6.2155h.04171c.45887,2.21092,1.04287,4.38009,1.50173,6.17379l1.50173,6.04865Zm9.34411,10.26184L105.63795,0h-5.92351l-9.30238,29.61747h6.29893l1.50173-5.46463h8.71837l1.46004,5.46463h6.59092Zm-28.53291,0v-5.08921h-12.22242v-7.75893h9.96983v-4.79722h-9.96983V5.08917h12.22242V0h-18.47964V29.61747h18.47964Zm-26.82121,0V0h-6.25722V11.93041h-8.30124V0h-6.25722V29.61747h6.25722v-12.59786h8.30124v12.59786h6.25722ZM29.32771,13.43212H2.16305v2.41944H29.32771v-2.41944Z"/>
    </g>
  </g>
</svg>