<?xml version="1.0" encoding="UTF-8"?>
<svg id="Calque_2" data-name="Calque 2" xmlns="http://www.w3.org/2000/svg" viewBox="0 0 147.41921 98.27947">
  <defs>
    <style>
      .cls-1, .cls-2 {
        fill: #fff;
        font-family: JetBrainsMono-SemiBold, 'JetBrains Mono';
        font-size: 20px;
      }

      .cls-2 {
        letter-spacing: -.00303em;
      }
    </style>
  </defs>
  <g id="Calque_1-2" data-name="Calque 1">
    <g>
      <rect x="0" y="0" width="32.75982" height="32.75982" rx="16.3799" ry="16.3799"/>
      <rect x="0" y="32.75982" width="32.75982" height="32.75982"/>
      <rect x="32.75982" y="32.75982" width="32.75982" height="32.75982"/>
      <rect x="65.51965" y="32.75982" width="32.75982" height="32.75982" rx="16.3799" ry="16.3799"/>
      <rect x="0" y="65.51965" width="32.75982" height="32.75982" rx="16.3799" ry="16.3799"/>
      <rect x="82.11552" y="65.51965" width="32.75982" height="32.75982" rx="16.3799" ry="16.3799"/>
      <rect x="32.75982" y="65.51965" width="32.75982" height="32.75982"/>
      <rect x="49.24772" y="65.51965" width="32.75982" height="32.75982"/>
      <rect x="32.75982" y="0" width="32.75982" height="32.75982"/>
      <rect x="65.51965" y="0" width="32.75982" height="32.75982"/>
      <rect x="98.27947" y="0" width="32.75982" height="32.75982"/>
      <rect x="114.65938" y="0" width="32.75982" height="32.75982"/>
      <text class="cls-1" transform="translate(7.39857 22.64075)"><tspan x="0" y="0">Calculateur</tspan></text>
      <text class="cls-2" transform="translate(7.42591 55.40149)"><tspan x="0" y="0">Carbone </tspan></text>
      <text class="cls-1" transform="translate(7.64759 88.16126)"><tspan x="0" y="0">Campus</tspan></text>
    </g>
  </g>
</svg>