<?xml version="1.0" encoding="UTF-8"?><svg id="a" xmlns="http://www.w3.org/2000/svg" viewBox="0 0 159.64 159.64"><path d="M48.54,140.29s0-.04,0-.06v-11.96s0-.04,0-.06,0-.04,0-.06v-5.92s0-.04,0-.06,0-.04,0-.06v-5.92s0-.04,0-.06,0-.04,0-.06v-5.92s0-.04,0-.06,0-.04,0-.06v-.21h-.02c-.14-1.54-1.42-2.75-2.99-2.75s-2.86,1.21-2.99,2.75h-.02v.21s0,.04,0,.06,0,.04,0,.06v5.92s0,.04,0,.06,0,.04,0,.06v5.92s0,.04,0,.06,0,.04,0,.06v5.92s0,.04,0,.06,0,.04,0,.06v11.96s0,.04,0,.06c0,1.67,1.35,3.02,3.02,3.02s3.02-1.35,3.02-3.02Z"/><path d="M81.78,113.09c-1.67,0-3.02,1.35-3.02,3.02s1.35,3.02,3.02,3.02,3.02-1.35,3.02-3.02-1.35-3.02-3.02-3.02Z"/><circle cx="81.78" cy="122.16" r="3.02"/><circle cx="81.78" cy="128.2" r="3.02"/><circle cx="81.78" cy="134.24" r="3.02"/><circle cx="81.78" cy="140.29" r="3.02"/><path d="M93.87,119.13c1.67,0,3.02-1.35,3.02-3.02s-1.35-3.02-3.02-3.02-3.02,1.35-3.02,3.02,1.35,3.02,3.02,3.02Z"/><circle cx="93.87" cy="122.16" r="3.02"/><circle cx="93.87" cy="128.2" r="3.02"/><circle cx="93.87" cy="134.24" r="3.02"/><circle cx="93.87" cy="140.29" r="3.02"/><path d="M96.89,116.11c0,1.67,1.35,3.02,3.02,3.02s3.02-1.35,3.02-3.02-1.35-3.02-3.02-3.02-3.02,1.35-3.02,3.02Z"/><circle cx="99.91" cy="122.16" r="3.02"/><circle cx="99.91" cy="128.2" r="3.02"/><circle cx="99.91" cy="134.24" r="3.02"/><circle cx="99.91" cy="140.29" r="3.02"/><path d="M102.93,116.11c0,1.67,1.35,3.02,3.02,3.02s3.02-1.35,3.02-3.02-1.35-3.02-3.02-3.02-3.02,1.35-3.02,3.02Z"/><circle cx="105.96" cy="122.16" r="3.02"/><circle cx="105.96" cy="128.2" r="3.02"/><circle cx="105.96" cy="134.24" r="3.02"/><circle cx="105.96" cy="140.29" r="3.02"/><path d="M81.78,107.04c-1.67,0-3.02,1.35-3.02,3.02s1.35,3.02,3.02,3.02,3.02-1.35,3.02-3.02-1.35-3.02-3.02-3.02Z"/><path d="M93.87,113.09c1.67,0,3.02-1.35,3.02-3.02s-1.35-3.02-3.02-3.02-3.02,1.35-3.02,3.02,1.35,3.02,3.02,3.02Z"/><path d="M96.89,110.07c0,1.67,1.35,3.02,3.02,3.02s3.02-1.35,3.02-3.02-1.35-3.02-3.02-3.02-3.02,1.35-3.02,3.02Z"/><path d="M102.93,110.07c0,1.67,1.35,3.02,3.02,3.02s3.02-1.35,3.02-3.02-1.35-3.02-3.02-3.02-3.02,1.35-3.02,3.02Z"/><path d="M36.45,104.02c0,1.67,1.35,3.02,3.02,3.02s3.02-1.35,3.02-3.02-1.35-3.02-3.02-3.02-3.02,1.35-3.02,3.02Z"/><path d="M69.69,101c-1.67,0-3.02,1.35-3.02,3.02s1.35,3.02,3.02,3.02,3.02-1.35,3.02-3.02-1.35-3.02-3.02-3.02Z"/><path d="M81.78,101c-1.67,0-3.02,1.35-3.02,3.02s1.35,3.02,3.02,3.02,3.02-1.35,3.02-3.02-1.35-3.02-3.02-3.02Z"/><path d="M93.87,107.04c1.67,0,3.02-1.35,3.02-3.02s-1.35-3.02-3.02-3.02-3.02,1.35-3.02,3.02,1.35,3.02,3.02,3.02Z"/><path d="M96.89,104.02c0,1.67,1.35,3.02,3.02,3.02s3.02-1.35,3.02-3.02-1.35-3.02-3.02-3.02-3.02,1.35-3.02,3.02Z"/><path d="M105.96,107.04c1.67,0,3.02-1.35,3.02-3.02s-1.35-3.02-3.02-3.02-3.02,1.35-3.02,3.02,1.35,3.02,3.02,3.02Z"/><path d="M72.71,97.98s-.01-.08-.01-.13v-5.79s.01-.08,.01-.13-.01-.08-.01-.13v-5.79s.01-.08,.01-.13-.01-.08-.01-.13v-11.87s.01-.08,.01-.13-.01-.08-.01-.13v-.42h-.04c-.11-.62-.41-1.17-.84-1.6h0l-6.03-6.03h0c-.55-.55-1.31-.89-2.14-.89h-5.68c.69-.08,1.31-.38,1.77-.85h0l6.03-6.02h0c.56-.56,.9-1.32,.9-2.16,0-.08-.02-.16-.02-.25h.02v-5.56h-.02c0-.08,.02-.16,.02-.24,0-.87-.38-1.65-.97-2.21l-5.89-5.89c-.55-.59-1.33-.97-2.21-.97h-6.04c-.86,0-1.64,.37-2.19,.95l-5.93,5.93c-.58,.55-.95,1.32-.95,2.19,0,.08,.02,.16,.02,.24h-.02v5.56h.02c0,.08-.02,.16-.02,.25,0,.84,.35,1.6,.9,2.15h-.01l6.03,6.04h0c.46,.46,1.08,.75,1.77,.84h-5.71c-.75,.01-1.43,.3-1.95,.76h0l-.02,.02c-.09,.08-.17,.16-.25,.25l-5.77,5.77h0c-.51,.44-.87,1.05-1,1.74h-.05v.48s0,.04,0,.06,0,.04,0,.06v12s0,.04,0,.06,0,.04,0,.06v5.92s0,.04,0,.06,0,.04,0,.06v5.92s0,.04,0,.06c0,1.67,1.35,3.02,3.02,3.02s3.02-1.35,3.02-3.02c0-.02,0-.04,0-.06v-5.92s0-.04,0-.06,0-.04,0-.06v-5.92s0-.04,0-.06,0-.04,0-.06v-10.78l4.3-4.3h15.61l4.27,4.27v22.93h0s0,.02,0,.04c0,1.67,1.35,3.02,3.02,3.02s3.02-1.35,3.02-3.02Zm-19.89-51.38h3.52l4.29,4.29v3.54l-4.26,4.26h-3.58l-4.25-4.25v-3.55l4.28-4.28Z"/><path d="M81.78,94.96c-1.67,0-3.02,1.35-3.02,3.02s1.35,3.02,3.02,3.02,3.02-1.35,3.02-3.02-1.35-3.02-3.02-3.02Z"/><path d="M93.87,101c1.67,0,3.02-1.35,3.02-3.02s-1.35-3.02-3.02-3.02-3.02,1.35-3.02,3.02,1.35,3.02,3.02,3.02Z"/><path d="M96.89,97.98c0,1.67,1.35,3.02,3.02,3.02s3.02-1.35,3.02-3.02-1.35-3.02-3.02-3.02-3.02,1.35-3.02,3.02Z"/><path d="M81.78,88.91c-1.67,0-3.02,1.35-3.02,3.02s1.35,3.02,3.02,3.02,3.02-1.35,3.02-3.02-1.35-3.02-3.02-3.02Z"/><path d="M90.85,91.93c0,1.67,1.35,3.02,3.02,3.02s3.02-1.35,3.02-3.02-1.35-3.02-3.02-3.02-3.02,1.35-3.02,3.02Z"/><path d="M99.91,94.96c1.67,0,3.02-1.35,3.02-3.02s-1.35-3.02-3.02-3.02-3.02,1.35-3.02,3.02,1.35,3.02,3.02,3.02Z"/><path d="M45.52,82.87c-1.67,0-3.02,1.35-3.02,3.02s1.35,3.02,3.02,3.02,3.02-1.35,3.02-3.02-1.35-3.02-3.02-3.02Z"/><path d="M51.56,82.87c-1.67,0-3.02,1.35-3.02,3.02s1.35,3.02,3.02,3.02,3.02-1.35,3.02-3.02-1.35-3.02-3.02-3.02Z"/><path d="M57.6,82.87c-1.67,0-3.02,1.35-3.02,3.02s1.35,3.02,3.02,3.02,3.02-1.35,3.02-3.02-1.35-3.02-3.02-3.02Z"/><path d="M63.65,82.87h0c-1.67,0-3.02,1.35-3.02,3.02s1.35,3.02,3.02,3.02h0c1.67,0,3.02-1.35,3.02-3.02s-1.35-3.02-3.02-3.02Z"/><path d="M81.78,82.87c-1.67,0-3.02,1.35-3.02,3.02s1.35,3.02,3.02,3.02,3.02-1.35,3.02-3.02-1.35-3.02-3.02-3.02Z"/><path d="M90.85,85.89c0,1.67,1.35,3.02,3.02,3.02s3.02-1.35,3.02-3.02-1.35-3.02-3.02-3.02-3.02,1.35-3.02,3.02Z"/><path d="M81.78,82.87c1.67,0,3.02-1.35,3.02-3.02s-1.35-3.02-3.02-3.02-3.02,1.35-3.02,3.02,1.35,3.02,3.02,3.02Z"/><path d="M78.76,116.11c0-1.67-1.35-3.02-3.02-3.02s-3.02,1.35-3.02,3.02,1.35,3.02,3.02,3.02,3.02-1.35,3.02-3.02Z"/><circle cx="75.74" cy="122.16" r="3.02"/><circle cx="75.74" cy="128.2" r="3.02"/><circle cx="75.74" cy="134.24" r="3.02"/><circle cx="75.74" cy="140.29" r="3.02"/><path d="M78.76,110.07c0-1.67-1.35-3.02-3.02-3.02s-3.02,1.35-3.02,3.02,1.35,3.02,3.02,3.02,3.02-1.35,3.02-3.02Z"/><path d="M78.76,104.02c0-1.67-1.35-3.02-3.02-3.02s-3.02,1.35-3.02,3.02,1.35,3.02,3.02,3.02,3.02-1.35,3.02-3.02Z"/><path d="M78.76,97.98c0-1.67-1.35-3.02-3.02-3.02s-3.02,1.35-3.02,3.02,1.35,3.02,3.02,3.02,3.02-1.35,3.02-3.02Z"/><path d="M75.74,94.96c1.67,0,3.02-1.35,3.02-3.02s-1.35-3.02-3.02-3.02-3.02,1.35-3.02,3.02,1.35,3.02,3.02,3.02Z"/><path d="M75.74,88.91c1.67,0,3.02-1.35,3.02-3.02s-1.35-3.02-3.02-3.02-3.02,1.35-3.02,3.02,1.35,3.02,3.02,3.02Z"/><path d="M78.76,79.85c0-1.67-1.35-3.02-3.02-3.02s-3.02,1.35-3.02,3.02,1.35,3.02,3.02,3.02,3.02-1.35,3.02-3.02Z"/><path d="M93.87,82.87c1.67,0,3.02-1.35,3.02-3.02s-1.35-3.02-3.02-3.02-3.02,1.35-3.02,3.02,1.35,3.02,3.02,3.02Z"/><path d="M87.82,76.82c-1.67,0-3.02,1.35-3.02,3.02s1.35,3.02,3.02,3.02c-1.67,0-3.02,1.35-3.02,3.02s1.35,3.02,3.02,3.02c-1.67,0-3.02,1.35-3.02,3.02s1.35,3.02,3.02,3.02c-1.67,0-3.02,1.35-3.02,3.02s1.35,3.02,3.02,3.02c-1.67,0-3.02,1.35-3.02,3.02s1.35,3.02,3.02,3.02c-1.67,0-3.02,1.35-3.02,3.02s1.35,3.02,3.02,3.02c-1.67,0-3.02,1.35-3.02,3.02s1.35,3.02,3.02,3.02c-1.67,0-3.02,1.35-3.02,3.02s1.35,3.02,3.02,3.02c-1.67,0-3.02,1.35-3.02,3.02s1.35,3.02,3.02,3.02c-1.67,0-3.02,1.35-3.02,3.02s1.35,3.02,3.02,3.02c-1.67,0-3.02,1.35-3.02,3.02s1.35,3.02,3.02,3.02c-1.67,0-3.02,1.35-3.02,3.02,0-1.67-1.35-3.02-3.02-3.02s-3.02,1.35-3.02,3.02c0-1.67-1.35-3.02-3.02-3.02s-3.02,1.35-3.02,3.02c0-1.67-1.35-3.02-3.02-3.02h-6.04c1.67,0,3.02-1.35,3.02-3.02,0-.02,0-.04,0-.06v-11.96s0-.04,0-.06,0-.04,0-.06v-5.92s0-.04,0-.06,0-.04,0-.06v-5.92s0-.04,0-.06,0-.04,0-.06v-5.92s0-.04,0-.06,0-.04,0-.06v-.21h-.02c-.14-1.54-1.42-2.75-2.99-2.75h0c-1.58,0-2.86,1.21-2.99,2.75h-.02v.21s0,.04,0,.06,0,.04,0,.06v5.92s0,.04,0,.06,0,.04,0,.06v5.92s0,.04,0,.06,0,.04,0,.06v5.92s0,.04,0,.06,0,.04,0,.06v11.96s0,.04,0,.06c0,1.67,1.35,3.02,3.02,3.02h-6.04c-1.67,0-3.02,1.35-3.02,3.02,0-1.67-1.35-3.02-3.02-3.02-.01,0-.02,0-.03,0h-12.06c-1.67,0-3.02,1.35-3.02,3.02h0c0,1.67,1.35,3.02,3.02,3.02h12.06s.02,0,.03,0c1.67,0,3.02-1.35,3.02-3.02,0,1.67,1.35,3.02,3.02,3.02h12.09c1.67,0,3.02-1.35,3.02-3.02,0,1.67,1.35,3.02,3.02,3.02s3.02-1.35,3.02-3.02c0,1.67,1.35,3.02,3.02,3.02s3.02-1.35,3.02-3.02c0,1.67,1.35,3.02,3.02,3.02h0c1.67,0,3.02-1.35,3.02-3.02,0,1.67,1.35,3.02,3.02,3.02s3.02-1.35,3.02-3.02c0,1.67,1.35,3.02,3.02,3.02s3.02-1.35,3.02-3.02c0,1.67,1.35,3.02,3.02,3.02s3.02-1.35,3.02-3.02c0,1.67,1.35,3.02,3.02,3.02s3.02-1.35,3.02-3.02h0c0-1.67-1.35-3.02-3.02-3.02s-3.02,1.35-3.02,3.02c0-1.67-1.35-3.02-3.02-3.02s-3.02,1.35-3.02,3.02c0-1.67-1.35-3.02-3.02-3.02s-3.02,1.35-3.02,3.02c0-1.67-1.35-3.02-3.02-3.02s-3.02,1.35-3.02,3.02c0-1.67-1.35-3.02-3.02-3.02,1.67,0,3.02-1.35,3.02-3.02s-1.35-3.02-3.02-3.02c1.67,0,3.02-1.35,3.02-3.02s-1.35-3.02-3.02-3.02c1.67,0,3.02-1.35,3.02-3.02s-1.35-3.02-3.02-3.02c1.67,0,3.02-1.35,3.02-3.02s-1.35-3.02-3.02-3.02c1.67,0,3.02-1.35,3.02-3.02s-1.35-3.02-3.02-3.02c1.67,0,3.02-1.35,3.02-3.02s-1.35-3.02-3.02-3.02c1.67,0,3.02-1.35,3.02-3.02s-1.35-3.02-3.02-3.02c1.67,0,3.02-1.35,3.02-3.02s-1.35-3.02-3.02-3.02c1.67,0,3.02-1.35,3.02-3.02s-1.35-3.02-3.02-3.02c1.67,0,3.02-1.35,3.02-3.02s-1.35-3.02-3.02-3.02c1.67,0,3.02-1.35,3.02-3.02s-1.35-3.02-3.02-3.02c1.67,0,3.02-1.35,3.02-3.02s-1.35-3.02-3.02-3.02h0c-1.67,0-3.02,1.35-3.02,3.02s1.35,3.02,3.02,3.02Z"/><path d="M93.89,19.14h-.03v3.28h-3.02c-1.67,0-3.02,1.35-3.02,3.02s1.35,3.02,3.02,3.02h3.02v3.02c0,1.67,1.35,3.02,3.02,3.02s3.02-1.35,3.02-3.02c0-.04-.01-.08-.01-.13v-2.89h3.03c1.67,0,3.02-1.35,3.02-3.02s-1.35-3.02-3.02-3.02h-3.03v-2.89s.01-.08,.01-.13-.01-.08-.01-.13v-.13h-.01c-.13-1.55-1.42-2.76-3-2.76s-2.86,1.22-3,2.76Z"/><path d="M115.02,13.36h0c0-1.67-1.35-3.02-3.02-3.02h-30.22c-1.67,0-3.02,1.35-3.02,3.02h0s0,.04,0,.06v5.92s0,.04,0,.06,0,.04,0,.06v5.92s0,.04,0,.06,0,.04,0,.06v5.92s0,.04,0,.06,0,.04,0,.06v5.92s0,.04,0,.06,0,.04,0,.06v5.92s0,.04,0,.06,0,.04,0,.06v5.92s0,.04,0,.06,0,.04,0,.06v5.92s0,.04,0,.06,0,.04,0,.06v5.92s0,.04,0,.06,0,.04,0,.06v5.92s0,.04,0,.06h0s0,.04,0,.06v5.92s0,.04,0,.06c0,1.67,1.35,3.02,3.02,3.02s3.02-1.35,3.02-3.02c0-.02,0-.04,0-.06v-5.92s0-.04,0-.06h0s0-.04,0-.06v-5.92s0-.04,0-.06,0-.04,0-.06v-5.92s0-.04,0-.06,0-.04,0-.06v-5.92s0-.04,0-.06,0-.04,0-.06v-5.92s0-.04,0-.06,0-.04,0-.06v-2.96h27.21c1.67,0,3.02-1.35,3.02-3.02,0-.35-.07-.67-.18-.98v-4.08c.11-.31,.18-.64,.18-.98s-.07-.67-.18-.98v-4.08c.11-.31,.18-.64,.18-.98s-.07-.67-.18-.98v-4.08c.11-.31,.18-.64,.18-.98s-.07-.67-.18-.98v-4.08c.11-.31,.18-.64,.18-.98Zm-27.2,21.15h-3.03v-2.96s0-.04,0-.06,0-.04,0-.06v-5.92s0-.04,0-.06,0-.04,0-.06v-5.92s0-.04,0-.06,0-.04,0-.06v-2.96h24.02v18.13h-20.99Z"/><path d="M112,131.22c1.67,0,3.02-1.35,3.02-3.02s-1.3-2.96-2.93-3.01c1.62-.05,2.93-1.38,2.93-3.01s-1.35-3.02-3.02-3.02-3.02,1.35-3.02,3.02,1.3,2.96,2.93,3.01c-1.62,.05-2.93,1.38-2.93,3.01s1.35,3.02,3.02,3.02Z"/><circle cx="112" cy="134.24" r="3.02"/><circle cx="112" cy="140.29" r="3.02"/></svg>