<?xml version="1.0" encoding="UTF-8"?><svg id="a" xmlns="http://www.w3.org/2000/svg" viewBox="0 0 159.64 159.64"><path d="M49.64,92.18c0-1.03-.83-1.86-1.86-1.86s-1.86,.83-1.86,1.86,.83,1.86,1.86,1.86,1.86-.83,1.86-1.86Z"/><path d="M57.08,92.18c0-1.03-.83-1.86-1.86-1.86s-1.86,.83-1.86,1.86,.83,1.86,1.86,1.86,1.86-.83,1.86-1.86Z"/><path d="M34.76,92.18c0-1.03-.83-1.86-1.86-1.86s-1.86,.83-1.86,1.86,.83,1.86,1.86,1.86,1.86-.83,1.86-1.86Z"/><path d="M42.2,92.18c0-1.03-.83-1.86-1.86-1.86s-1.86,.83-1.86,1.86,.83,1.86,1.86,1.86,1.86-.83,1.86-1.86Z"/><path d="M53.36,88.46h0c0-1.03-.83-1.86-1.86-1.86s-1.86,.83-1.86,1.86h0c0,1.03,.83,1.86,1.86,1.86s1.86-.83,1.86-1.86Z"/><path d="M60.8,88.46h0c0-1.03-.83-1.86-1.86-1.86s-1.86,.83-1.86,1.86h0c0,1.03,.83,1.86,1.86,1.86s1.86-.83,1.86-1.86Z"/><path d="M31.04,88.46h0c0-1.03-.83-1.86-1.86-1.86s-1.86,.83-1.86,1.86h0c0,1.03,.83,1.86,1.86,1.86s1.86-.83,1.86-1.86Z"/><path d="M38.48,88.46h0c0-1.03-.83-1.86-1.86-1.86s-1.86,.83-1.86,1.86h0c0,1.03,.83,1.86,1.86,1.86s1.86-.83,1.86-1.86Z"/><path d="M45.92,88.46h0c0-1.03-.83-1.86-1.86-1.86s-1.86,.83-1.86,1.86h0c0,1.03,.83,1.86,1.86,1.86s1.86-.83,1.86-1.86Z"/><path d="M53.36,92.18c0-1.03-.83-1.86-1.86-1.86s-1.86,.83-1.86,1.86,.83,1.86,1.86,1.86,1.86-.83,1.86-1.86Z"/><path d="M58.94,90.32c-1.03,0-1.86,.83-1.86,1.86s.83,1.86,1.86,1.86,1.86-.83,1.86-1.86-.83-1.86-1.86-1.86Z"/><path d="M31.04,92.18c0-1.03-.83-1.86-1.86-1.86s-1.86,.83-1.86,1.86,.83,1.86,1.86,1.86,1.86-.83,1.86-1.86Z"/><path d="M33.97,76.51c1.03,0,1.86-.83,1.86-1.86s-.83-1.86-1.86-1.86-1.86,.83-1.86,1.86,.83,1.86,1.86,1.86Z"/><path d="M30.25,72.79c-1.03,0-1.86,.83-1.86,1.86s.83,1.86,1.86,1.86h0c1.03,0,1.86-.83,1.86-1.86s-.83-1.86-1.86-1.86c1.03,0,1.86-.83,1.86-1.86s-.83-1.86-1.86-1.86c1.03,0,1.86-.83,1.86-1.86s-.83-1.86-1.86-1.86h0c-1.03,0-1.86,.83-1.86,1.86s.83,1.86,1.86,1.86c-1.03,0-1.86,.83-1.86,1.86s.83,1.86,1.86,1.86Z"/><path d="M28.39,67.21c0-1.03-.83-1.86-1.86-1.86s-1.86,.83-1.86,1.86,.83,1.86,1.86,1.86,1.86-.83,1.86-1.86Z"/><circle cx="22.81" cy="59.77" r="1.86"/><circle cx="19.09" cy="59.77" r="1.86"/><path d="M38.48,92.18c0-1.03-.83-1.86-1.86-1.86s-1.86,.83-1.86,1.86,.83,1.86,1.86,1.86,1.86-.83,1.86-1.86Z"/><path d="M45.92,92.18c0-1.03-.83-1.86-1.86-1.86s-1.86,.83-1.86,1.86,.83,1.86,1.86,1.86,1.86-.83,1.86-1.86Z"/><circle cx="51.5" cy="114.49" r="1.86"/><path d="M57.08,110.77c0-1.03-.83-1.86-1.86-1.86s-1.86,.83-1.86,1.86,.83,1.86,1.86,1.86,1.86-.83,1.86-1.86Z"/><path d="M57.08,114.49c0-1.03-.83-1.86-1.86-1.86s-1.86,.83-1.86,1.86,.83,1.86,1.86,1.86,1.86-.83,1.86-1.86Z"/><circle cx="66.38" cy="114.49" r="1.86"/><circle cx="58.94" cy="114.49" r="1.86"/><circle cx="62.66" cy="110.77" r="1.86"/><circle cx="62.66" cy="114.49" r="1.86"/><path d="M124.03,92.18c0-1.03-.83-1.86-1.86-1.86s-1.86,.83-1.86,1.86,.83,1.86,1.86,1.86,1.86-.83,1.86-1.86Z"/><path d="M131.47,92.18c0-1.03-.83-1.86-1.86-1.86s-1.86,.83-1.86,1.86,.83,1.86,1.86,1.86,1.86-.83,1.86-1.86Z"/><path d="M109.15,92.18c0-1.03-.83-1.86-1.86-1.86s-1.86,.83-1.86,1.86,.83,1.86,1.86,1.86,1.86-.83,1.86-1.86Z"/><path d="M116.59,92.18c0-1.03-.83-1.86-1.86-1.86s-1.86,.83-1.86,1.86,.83,1.86,1.86,1.86,1.86-.83,1.86-1.86Z"/><path d="M112.87,88.46h0c0-1.03-.83-1.86-1.86-1.86s-1.86,.83-1.86,1.86h0c0,1.03,.83,1.86,1.86,1.86s1.86-.83,1.86-1.86Z"/><path d="M120.31,88.46h0c0-1.03-.83-1.86-1.86-1.86s-1.86,.83-1.86,1.86h0c0,1.03,.83,1.86,1.86,1.86s1.86-.83,1.86-1.86Z"/><path d="M127.75,92.18c0-1.03-.83-1.86-1.86-1.86s-1.86,.83-1.86,1.86,.83,1.86,1.86,1.86,1.86-.83,1.86-1.86Z"/><path d="M133.33,90.32c-1.03,0-1.86,.83-1.86,1.86s.83,1.86,1.86,1.86,1.86-.83,1.86-1.86-.83-1.86-1.86-1.86Z"/><path d="M112.87,92.18c0-1.03-.83-1.86-1.86-1.86s-1.86,.83-1.86,1.86,.83,1.86,1.86,1.86,1.86-.83,1.86-1.86Z"/><path d="M120.31,92.18c0-1.03-.83-1.86-1.86-1.86s-1.86,.83-1.86,1.86,.83,1.86,1.86,1.86,1.86-.83,1.86-1.86Z"/><path d="M99.91,79.1c-1.03,0-1.86,.83-1.86,1.86s.83,1.86,1.86,1.86,1.86-.83,1.86-1.86-.83-1.86-1.86-1.86Z"/><path d="M92.47,79.1h0c-1.03,0-1.86,.83-1.86,1.86s.83,1.86,1.86,1.86h0c1.03,0,1.86-.83,1.86-1.86s-.83-1.86-1.86-1.86Z"/><path d="M85.03,79.1c-1.03,0-1.86,.83-1.86,1.86s.83,1.86,1.86,1.86,1.86-.83,1.86-1.86-.83-1.86-1.86-1.86Z"/><path d="M77.6,79.1c-1.03,0-1.86,.83-1.86,1.86s.83,1.86,1.86,1.86,1.86-.83,1.86-1.86-.83-1.86-1.86-1.86Z"/><path d="M70.16,79.1c-1.03,0-1.86,.83-1.86,1.86s.83,1.86,1.86,1.86,1.86-.83,1.86-1.86-.83-1.86-1.86-1.86Z"/><path d="M62.72,79.1c-1.03,0-1.86,.83-1.86,1.86s.83,1.86,1.86,1.86,1.86-.83,1.86-1.86-.83-1.86-1.86-1.86Z"/><path d="M55.28,79.1c-1.03,0-1.86,.83-1.86,1.86s.83,1.86,1.86,1.86,1.86-.83,1.86-1.86-.83-1.86-1.86-1.86Z"/><path d="M47.84,79.1c-1.03,0-1.86,.83-1.86,1.86s.83,1.86,1.86,1.86,1.86-.83,1.86-1.86-.83-1.86-1.86-1.86Z"/><path d="M149.52,83.42h0l-11.16-11.16h0c-.34-.33-.8-.54-1.32-.54H44.83l-10.61-10.61h0l-3.72-3.72h0l-3.72-3.72c-.34-.34-.8-.54-1.32-.54H6.87c-1.03,0-1.86,.83-1.86,1.86h0c0,.51,.21,.98,.54,1.32l7.44,7.44h0l3.72,3.72h0l4.24,4.24v5.64l-3.18,3.18h0c-.41,.34-.67,.85-.67,1.42v.13h-.01s.01-.08,.01-.13c0-1.03-.83-1.86-1.86-1.86s-1.86,.83-1.86,1.86c0,.04,0,.08,.01,.13h-.01v7.44h.01c.07,.97,.86,1.73,1.85,1.73s1.78-.77,1.85-1.73h.01v-.13c0,.51,.21,.98,.54,1.32l3.61,3.61,.1,.1,2.82,2.82,.03-.03c.34,.34,.8,.54,1.32,.54H58.17l-11.7,11.7c-.34,.34-.54,.8-.54,1.32v7.44c0,1.03,.83,1.86,1.86,1.86h26.04c.51,0,.98-.21,1.32-.54l7.44-7.44h0l3.17-3.17h10.39c1.03,0,1.86-.83,1.86-1.86v-9.3h42.77c.51,0,.98-.21,1.32-.54l7.44-7.44c.34-.34,.54-.8,.54-1.32h0v-3.72c0-.51-.21-.98-.54-1.32Zm-21.77-7.98h8.53l3.14,3.14s.04,.04,.06,.06l3.65,3.65s.04,.04,.06,.06l.52,.52h-17.06l-2.63-2.63v-4.81h3.72Zm9.3,14.88h0c-1.03,0-1.86,.83-1.86,1.86s.83,1.86,1.86,1.86h-33.48c1.03,0,1.86-.83,1.86-1.86s-.83-1.86-1.86-1.86c1.03,0,1.86-.83,1.86-1.86h0c0-1.03-.83-1.86-1.86-1.86h0c-1.03,0-1.86,.83-1.86,1.86h0c0,1.03,.83,1.86,1.86,1.86-1.03,0-1.86,.83-1.86,1.86s.83,1.86,1.86,1.86h-2.95l.54-.54c.34-.34,.54-.8,.54-1.32,0-1.03-.83-1.86-1.86-1.86-.51,0-.98,.21-1.32,.54l-7.44,7.44h0l-11.16,11.16h0l-.73,.73c-.26-.71-.94-1.21-1.74-1.21-1.03,0-1.86,.83-1.86,1.86,0,.8,.51,1.47,1.21,1.74l-1.27,1.27c-.26-.71-.94-1.21-1.74-1.21-1.03,0-1.86,.83-1.86,1.86,0,.8,.51,1.47,1.21,1.74l-.12,.12h-2.95c1.03,0,1.86-.83,1.86-1.86s-.83-1.86-1.86-1.86c1.03,0,1.86-.83,1.86-1.86s-.83-1.86-1.86-1.86h0c-1.03,0-1.86,.83-1.86,1.86s.83,1.86,1.86,1.86c-1.03,0-1.86,.83-1.86,1.86s.83,1.86,1.86,1.86h-20.46v-4.81l3.99-3.99c.29,.66,.94,1.12,1.71,1.12,1.03,0,1.86-.83,1.86-1.86,0-.77-.46-1.42-1.12-1.71l1.22-1.22c.29,.66,.94,1.12,1.71,1.12h0c1.03,0,1.86-.83,1.86-1.86,0-.77-.46-1.42-1.12-1.71l1.22-1.22c.29,.66,.94,1.12,1.71,1.12,1.03,0,1.86-.83,1.86-1.86,0-.77-.46-1.42-1.12-1.71l.58-.58h0l.64-.64c.29,.66,.94,1.12,1.71,1.12h0c1.03,0,1.86-.83,1.86-1.86,0-.77-.46-1.42-1.12-1.71l.64-.64h0l.11-.11h-.01c.18-.22,.31-.48,.38-.76,.2,.81,.93,1.41,1.8,1.41,1.03,0,1.86-.83,1.86-1.86s-.83-1.86-1.86-1.86c-.87,0-1.6,.6-1.8,1.41-.2-.81-.93-1.41-1.8-1.41-.46,0-.87,.17-1.19,.44h-.01l-.11,.1h0l-.67,.67c-.26-.71-.94-1.21-1.74-1.21-1.03,0-1.86,.83-1.86,1.86,0,.8,.51,1.47,1.21,1.74l-.12,.12H26.24l-.12-.12c.71-.26,1.21-.94,1.21-1.74,0-1.03-.83-1.86-1.86-1.86-.8,0-1.47,.51-1.74,1.21l-2.91-2.91v-5.88l3.24-3.24h0c.35-.32,.57-.76,.61-1.26h.01v-3.06c.27,.7,.94,1.2,1.73,1.2,1.03,0,1.86-.83,1.86-1.86,0-.84-.57-1.55-1.34-1.78,.84-.18,1.47-.92,1.47-1.82,0-1.03-.83-1.86-1.86-1.86s-1.86,.83-1.86,1.86c0,.84,.57,1.55,1.34,1.78-.62,.13-1.12,.57-1.34,1.15v-3.06h-.01c-.04-.52-.28-.98-.66-1.3h.01l-.55-.56c.71-.26,1.21-.94,1.21-1.74,0-1.03-.83-1.86-1.86-1.86-.8,0-1.47,.51-1.74,1.21l-1.33-1.33c.71-.26,1.21-.94,1.21-1.74,0,1.03,.83,1.86,1.86,1.86s1.86-.83,1.86-1.86c0,1.03,.83,1.86,1.86,1.86s1.86-.83,1.86-1.86h0c0-1.03-.83-1.86-1.86-1.86s-1.86,.83-1.86,1.86c0-1.03-.83-1.86-1.86-1.86s-1.86,.83-1.86,1.86c0-1.03-.83-1.86-1.86-1.86-.8,0-1.47,.51-1.74,1.21l-1.33-1.33c.71-.26,1.21-.94,1.21-1.74,0-1.03-.83-1.86-1.86-1.86-.8,0-1.47,.51-1.74,1.21l-2.28-2.28h2.2c.3,.63,.93,1.07,1.68,1.07s1.38-.44,1.68-1.07h.5c.3,.63,.93,1.07,1.68,1.07s1.38-.44,1.68-1.07h3.93l3.17,3.17h0l3.72,3.72h0l3.72,3.72h0l7.26,7.26,.02-.02c.34,.45,.87,.74,1.48,.74H120.31v5.58c0,.46,.17,.87,.44,1.19h-.01l3.95,3.96h.01c.32,.26,.74,.43,1.19,.43h20.46v1.09l-6.35,6.35h-2.95c1.03,0,1.86-.83,1.86-1.86s-.83-1.86-1.86-1.86Z"/></svg>