<svg width="934" height="934" viewBox="0 0 934 934" fill="none" xmlns="http://www.w3.org/2000/svg">
    <circle cx="467" cy="467" r="429.5" fill="black" stroke="white" stroke-width="75"/>
    <path d="M470.101 697.2C439.928 697.2 413.474 691.62 390.741 680.46C368.008 668.887 350.234 652.973 337.421 632.72C325.021 612.053 318.821 588.08 318.821 560.8V368.6C318.821 340.907 325.021 316.933 337.421 296.68C350.234 276.427 368.008 260.72 390.741 249.56C413.474 237.987 439.928 232.2 470.101 232.2C500.688 232.2 527.141 237.987 549.461 249.56C572.194 260.72 589.761 276.427 602.161 296.68C614.974 316.933 621.381 340.907 621.381 368.6H528.381C528.381 350.413 523.214 336.567 512.881 327.06C502.961 317.553 488.701 312.8 470.101 312.8C451.501 312.8 437.034 317.553 426.701 327.06C416.781 336.567 411.821 350.413 411.821 368.6V560.8C411.821 578.573 416.781 592.42 426.701 602.34C437.034 611.847 451.501 616.6 470.101 616.6C488.701 616.6 502.961 611.847 512.881 602.34C523.214 592.42 528.381 578.573 528.381 560.8H621.381C621.381 588.08 614.974 612.053 602.161 632.72C589.761 652.973 572.194 668.887 549.461 680.46C527.141 691.62 500.688 697.2 470.101 697.2Z" fill="white"/>
</svg>
