<?xml version="1.0" encoding="UTF-8"?><svg id="a" xmlns="http://www.w3.org/2000/svg" viewBox="0 0 159.64 159.64"><circle cx="56.38" cy="119.48" r="3.02"/><circle cx="56.38" cy="125.52" r="3.02"/><circle cx="56.38" cy="131.57" r="3.02"/><circle cx="62.43" cy="119.48" r="3.02"/><circle cx="62.43" cy="125.52" r="3.02"/><circle cx="62.43" cy="131.57" r="3.02"/><circle cx="68.47" cy="119.48" r="3.02"/><circle cx="68.47" cy="125.52" r="3.02"/><circle cx="68.47" cy="131.57" r="3.02"/><circle cx="80.56" cy="119.48" r="3.02"/><circle cx="80.56" cy="125.52" r="3.02"/><circle cx="80.56" cy="131.57" r="3.02"/><circle cx="86.6" cy="119.48" r="3.02"/><circle cx="86.6" cy="125.52" r="3.02"/><circle cx="86.6" cy="131.57" r="3.02"/><circle cx="92.65" cy="119.48" r="3.02"/><circle cx="92.65" cy="125.52" r="3.02"/><circle cx="92.65" cy="131.57" r="3.02"/><circle cx="98.69" cy="119.48" r="3.02"/><circle cx="98.69" cy="125.52" r="3.02"/><circle cx="98.69" cy="131.57" r="3.02"/><path d="M116.82,13.7h-42.45c-1.67,0-3.02,1.35-3.02,3.02s1.35,3.02,3.02,3.02h14.54c-1.32,.32-2.31,1.51-2.31,2.93,0,1.67,1.35,3.02,3.02,3.02h24.18v57.51c0-1.67-1.35-3.02-3.02-3.02s-3.02,1.35-3.02,3.02c0-1.67-1.35-3.02-3.02-3.02s-3.02,1.35-3.02,3.02c0-1.67-1.35-3.02-3.02-3.02s-3.02,1.35-3.02,3.02c0-1.67-1.35-3.02-3.02-3.02s-3.02,1.35-3.02,3.02h0c0,1.67,1.35,3.02,3.02,3.02s3.02-1.35,3.02-3.02c0,1.67,1.35,3.02,3.02,3.02s3.02-1.35,3.02-3.02c0,1.67,1.35,3.02,3.02,3.02s3.02-1.35,3.02-3.02c0,1.67,1.35,3.02,3.02,3.02s3.02-1.35,3.02-3.02v51.45h-2.38c-.21-.04-.42-.07-.64-.07s-.43,.03-.64,.07h-4.76c-.21-.04-.42-.07-.64-.07s-.43,.03-.64,.07h-4.76c-.21-.04-.42-.07-.64-.07s-.43,.03-.64,.07h-4.76c-.21-.04-.42-.07-.64-.07s-.43,.03-.64,.07h-4.76c-.21-.04-.42-.07-.64-.07s-.43,.03-.64,.07h-4.76c-.21-.04-.42-.07-.64-.07s-.43,.03-.64,.07h-4.76c-.21-.04-.42-.07-.64-.07,1.67,0,3.02-1.35,3.02-3.02s-1.35-3.02-3.02-3.02c1.67,0,3.02-1.35,3.02-3.02s-1.35-3.02-3.02-3.02c1.67,0,3.02-1.35,3.02-3.02s-1.35-3.02-3.02-3.02c1.67,0,3.02-1.35,3.02-3.02s-1.35-3.02-3.02-3.02c1.67,0,3.02-1.35,3.02-3.02s-1.35-3.02-3.02-3.02c1.67,0,3.02-1.35,3.02-3.02s-1.35-3.02-3.02-3.02h0c-1.67,0-3.02,1.35-3.02,3.02s1.35,3.02,3.02,3.02c-1.67,0-3.02,1.35-3.02,3.02s1.35,3.02,3.02,3.02c-1.67,0-3.02,1.35-3.02,3.02s1.35,3.02,3.02,3.02c-1.67,0-3.02,1.35-3.02,3.02s1.35,3.02,3.02,3.02c-1.67,0-3.02,1.35-3.02,3.02s1.35,3.02,3.02,3.02c-1.67,0-3.02,1.35-3.02,3.02s1.35,3.02,3.02,3.02c-.22,0-.43,.03-.64,.07h-4.76c-.21-.04-.42-.07-.64-.07s-.43,.03-.64,.07h-4.76c-.21-.04-.42-.07-.64-.07s-.43,.03-.64,.07h-4.76c-.21-.04-.42-.07-.64-.07s-.43,.03-.64,.07h-2.38v-51.45h0v-9.09h0c-.01-1.66-1.36-3-3.02-3s-3.01,1.34-3.02,3h0v9.09h0v66.49c0,1.67,1.35,3.02,3.02,3.02H116.83c1.67,0,3.02-1.35,3.02-3.02V83.21h0V16.73c0-1.67-1.35-3.02-3.02-3.02ZM62.43,146.71c-1.67,0-3.02-1.35-3.02-3.02s1.35-3.02,3.02-3.02,3.02,1.35,3.02,3.02-1.35,3.02-3.02,3.02Zm27.2-.04c0,1.67-1.35,3.02-3.02,3.02s-3.02-1.35-3.02-3.02c0,1.67-1.35,3.02-3.02,3.02s-3.02-1.35-3.02-3.02,1.35-3.02,3.02-3.02c-1.67,0-3.02-1.35-3.02-3.02s1.35-3.02,3.02-3.02,3.02,1.35,3.02,3.02c0-1.67,1.35-3.02,3.02-3.02s3.02,1.35,3.02,3.02-1.35,3.02-3.02,3.02c1.67,0,3.02,1.35,3.02,3.02Zm15.11,.04c-1.67,0-3.02-1.35-3.02-3.02s1.35-3.02,3.02-3.02,3.02,1.35,3.02,3.02-1.35,3.02-3.02,3.02Z"/><path d="M83.58,140.63c0,1.67-1.35,3.02-3.02,3.02,1.67,0,3.02,1.35,3.02,3.02,0-1.67,1.35-3.02,3.02-3.02-1.67,0-3.02-1.35-3.02-3.02Z"/><path d="M104.74,116.45c-1.67,0-3.02,1.35-3.02,3.02s1.35,3.02,3.02,3.02,3.02-1.35,3.02-3.02-1.35-3.02-3.02-3.02Z"/><circle cx="62.43" cy="113.43" r="3.02"/><circle cx="68.47" cy="113.43" r="3.02"/><circle cx="80.56" cy="113.43" r="3.02"/><circle cx="86.6" cy="113.43" r="3.02"/><circle cx="92.65" cy="113.43" r="3.02"/><circle cx="98.69" cy="113.43" r="3.02"/><path d="M104.74,110.41c-1.67,0-3.02,1.35-3.02,3.02s1.35,3.02,3.02,3.02,3.02-1.35,3.02-3.02-1.35-3.02-3.02-3.02Z"/><path d="M104.74,122.5c-1.67,0-3.02,1.35-3.02,3.02s1.35,3.02,3.02,3.02,3.02-1.35,3.02-3.02-1.35-3.02-3.02-3.02Z"/><path d="M107.76,131.57c0-1.67-1.35-3.02-3.02-3.02s-3.02,1.35-3.02,3.02,1.35,3.02,3.02,3.02,3.02-1.35,3.02-3.02Z"/><circle cx="110.78" cy="113.43" r="3.02"/><path d="M71.49,107.39c0-1.67-1.35-3.02-3.02-3.02s-3.02,1.35-3.02,3.02,1.35,3.02,3.02,3.02,3.02-1.35,3.02-3.02Z"/><path d="M80.56,110.41c1.67,0,3.02-1.35,3.02-3.02s-1.35-3.02-3.02-3.02-3.02,1.35-3.02,3.02,1.35,3.02,3.02,3.02Z"/><path d="M86.6,110.41c1.67,0,3.02-1.35,3.02-3.02s-1.35-3.02-3.02-3.02-3.02,1.35-3.02,3.02,1.35,3.02,3.02,3.02Z"/><path d="M92.65,110.41c1.67,0,3.02-1.35,3.02-3.02s-1.35-3.02-3.02-3.02-3.02,1.35-3.02,3.02,1.35,3.02,3.02,3.02Z"/><path d="M98.69,104.37c-1.67,0-3.02,1.35-3.02,3.02s1.35,3.02,3.02,3.02,3.02-1.35,3.02-3.02-1.35-3.02-3.02-3.02Z"/><path d="M104.74,104.37c-1.67,0-3.02,1.35-3.02,3.02s1.35,3.02,3.02,3.02,3.02-1.35,3.02-3.02-1.35-3.02-3.02-3.02Z"/><path d="M110.78,104.37c-1.67,0-3.02,1.35-3.02,3.02s1.35,3.02,3.02,3.02,3.02-1.35,3.02-3.02-1.35-3.02-3.02-3.02Z"/><path d="M80.56,104.37c1.67,0,3.02-1.35,3.02-3.02s-1.35-3.02-3.02-3.02-3.02,1.35-3.02,3.02,1.35,3.02,3.02,3.02Z"/><path d="M86.6,104.37c1.67,0,3.02-1.35,3.02-3.02s-1.35-3.02-3.02-3.02-3.02,1.35-3.02,3.02,1.35,3.02,3.02,3.02Z"/><path d="M92.65,104.37c1.67,0,3.02-1.35,3.02-3.02s-1.35-3.02-3.02-3.02-3.02,1.35-3.02,3.02,1.35,3.02,3.02,3.02Z"/><path d="M95.67,101.34c0,1.67,1.35,3.02,3.02,3.02s3.02-1.35,3.02-3.02-1.35-3.02-3.02-3.02-3.02,1.35-3.02,3.02Z"/><path d="M104.74,98.32c-1.67,0-3.02,1.35-3.02,3.02s1.35,3.02,3.02,3.02,3.02-1.35,3.02-3.02-1.35-3.02-3.02-3.02Z"/><path d="M110.78,98.32c-1.67,0-3.02,1.35-3.02,3.02s1.35,3.02,3.02,3.02,3.02-1.35,3.02-3.02-1.35-3.02-3.02-3.02Z"/><path d="M83.58,95.3c0-1.67-1.35-3.02-3.02-3.02s-3.02,1.35-3.02,3.02,1.35,3.02,3.02,3.02,3.02-1.35,3.02-3.02Z"/><path d="M86.6,98.32c1.67,0,3.02-1.35,3.02-3.02s-1.35-3.02-3.02-3.02-3.02,1.35-3.02,3.02,1.35,3.02,3.02,3.02Z"/><path d="M92.65,98.32c1.67,0,3.02-1.35,3.02-3.02s-1.35-3.02-3.02-3.02-3.02,1.35-3.02,3.02,1.35,3.02,3.02,3.02Z"/><path d="M95.67,95.3c0,1.67,1.35,3.02,3.02,3.02s3.02-1.35,3.02-3.02-1.35-3.02-3.02-3.02-3.02,1.35-3.02,3.02Z"/><path d="M101.71,95.3c0,1.67,1.35,3.02,3.02,3.02s3.02-1.35,3.02-3.02-1.35-3.02-3.02-3.02-3.02,1.35-3.02,3.02Z"/><path d="M110.78,92.28c-1.67,0-3.02,1.35-3.02,3.02s1.35,3.02,3.02,3.02,3.02-1.35,3.02-3.02-1.35-3.02-3.02-3.02Z"/><path d="M89.63,89.26c0-1.67-1.35-3.02-3.02-3.02s-3.02,1.35-3.02,3.02,1.35,3.02,3.02,3.02,3.02-1.35,3.02-3.02Z"/><path d="M92.65,92.28c1.67,0,3.02-1.35,3.02-3.02s-1.35-3.02-3.02-3.02-3.02,1.35-3.02,3.02,1.35,3.02,3.02,3.02Z"/><path d="M95.67,89.26c0,1.67,1.35,3.02,3.02,3.02s3.02-1.35,3.02-3.02-1.35-3.02-3.02-3.02-3.02,1.35-3.02,3.02Z"/><path d="M101.71,89.26c0,1.67,1.35,3.02,3.02,3.02s3.02-1.35,3.02-3.02-1.35-3.02-3.02-3.02-3.02,1.35-3.02,3.02Z"/><path d="M107.76,89.26c0,1.67,1.35,3.02,3.02,3.02s3.02-1.35,3.02-3.02-1.35-3.02-3.02-3.02-3.02,1.35-3.02,3.02Z"/><path d="M101.71,77.17c0-1.67-1.35-3.02-3.02-3.02s-3.02,1.35-3.02,3.02,1.35,3.02,3.02,3.02,3.02-1.35,3.02-3.02Z"/><path d="M104.74,80.19c1.67,0,3.02-1.35,3.02-3.02s-1.35-3.02-3.02-3.02-3.02,1.35-3.02,3.02,1.35,3.02,3.02,3.02Z"/><path d="M110.78,74.15c-1.67,0-3.02,1.35-3.02,3.02s1.35,3.02,3.02,3.02,3.02-1.35,3.02-3.02-1.35-3.02-3.02-3.02Z"/><path d="M107.76,71.12c0-1.67-1.35-3.02-3.02-3.02s-3.02,1.35-3.02,3.02,1.35,3.02,3.02,3.02,3.02-1.35,3.02-3.02Z"/><path d="M110.78,74.15c1.67,0,3.02-1.35,3.02-3.02s-1.35-3.02-3.02-3.02-3.02,1.35-3.02,3.02,1.35,3.02,3.02,3.02Z"/><circle cx="110.78" cy="65.03" r="3.02"/><circle cx="110.78" cy="119.48" r="3.02"/><circle cx="110.78" cy="125.52" r="3.02"/><circle cx="110.78" cy="131.57" r="3.02"/><path d="M65.04,67.83h0c.78,0,1.56-.29,2.16-.89l18.56-18.56,.06-.06h0c.64-.68,.9-1.58,.8-2.44h.01v-10.29h0v-8.53h0c0-.78-.29-1.56-.88-2.16h0c-.6-.6-1.38-.89-2.16-.88h-8.5c-.78,0-1.56,.29-2.16,.88l-11.94,11.94h-4.27v-4.27l11.94-11.94c.6-.6,.89-1.38,.88-2.16h0V9.98h0c0-.78-.29-1.56-.88-2.16-.6-.6-1.38-.89-2.16-.88h-18.82c-.86-.09-1.76,.17-2.43,.81h0l-10.07,10.07h0l-4.27,4.27h0l-4.27,4.27c-.6,.6-.89,1.38-.88,2.16h0v15.82l-3.39,3.39,.02,.02c-.43,.52-.69,1.18-.69,1.9,0,1.67,1.35,3.02,3.02,3.02,.73,0,1.38-.27,1.9-.69l.02,.02,.21-.21,4.06-4.06c.59-.59,.89-1.36,.89-2.14v-15.84L48.53,12.98h14.95v4.27l-11.94,11.94c-.6,.6-.89,1.38-.88,2.16h0v8.5h0c0,.78,.29,1.56,.88,2.16s1.38,.89,2.16,.88h8.5c.78,0,1.56-.29,2.16-.88l11.94-11.94h4.27v14.95l-16.77,16.77h-15.84c-.77,0-1.55,.29-2.14,.89l-18.62,18.62,.1,.1c-.94,.51-1.59,1.5-1.59,2.64,0,1.67,1.35,3.02,3.02,3.02,1.15,0,2.13-.65,2.64-1.59l.1,.1,17.73-17.73h15.82Z"/></svg>