<?xml version="1.0" encoding="utf-8"?>
<!-- Generator: Adobe Illustrator 26.5.0, SVG Export Plug-In . SVG Version: 6.00 Build 0)  -->
<svg version="1.1" id="Calque_1" xmlns="http://www.w3.org/2000/svg" xmlns:xlink="http://www.w3.org/1999/xlink" x="0px" y="0px"
	 viewBox="0 0 248 90" style="enable-background:new 0 0 248 90;" xml:space="preserve">
<style type="text/css">
	.st0{fill-rule:evenodd;clip-rule:evenodd;}
</style>
<g id="Symbols">
	<g id="Navigation_x2F_Header" transform="translate(-50.000000, -18.000000)">
		<g id="Group" transform="translate(50.000000, 15.536408)">
			<g id="Group-44" transform="translate(0.000000, 2.968750)">
				<polygon id="Fill-1" class="st0" points="0,48.4 101.9,48.4 101.9,41.6 0,41.6 				"/>
				<path id="Shape" class="st0" d="M94.9,77.6c1,0,2,0.2,2.7,0.6c1,0.5,1.6,1.4,1.9,2.6l0.1,0.5h-1.5l-0.1-0.4
					c-0.2-0.6-0.5-1.1-1-1.4c-0.6-0.4-1.3-0.6-2.2-0.6c-1,0-1.9,0.4-2.6,1.2c-0.7,0.8-1.1,1.9-1.1,3.5c0,1.3,0.3,2.4,0.9,3.2
					c0.6,0.8,1.5,1.3,2.8,1.3c1,0,1.8-0.3,2.5-0.9c0.6-0.5,0.9-1.3,1-2.4l0-0.5H95v-1.3h4.9v6h-1l-0.4-1.4l-0.3,0.3
					c-0.4,0.4-0.7,0.7-1.1,0.9c-0.7,0.4-1.5,0.6-2.5,0.6c-1.3,0-2.5-0.4-3.4-1.3c-1-1.1-1.6-2.6-1.6-4.4c0-1.9,0.5-3.4,1.5-4.5
					C92.2,78.1,93.4,77.6,94.9,77.6z M122.7,80.7c0.6,0,1.1,0.1,1.7,0.4c0.5,0.3,1,0.6,1.2,1.1c0.3,0.4,0.5,0.9,0.5,1.4
					c0.1,0.3,0.1,0.7,0.1,1.3l0,0.5h-6l0,0.5c0.1,0.6,0.3,1.1,0.5,1.5c0.4,0.5,0.9,0.7,1.7,0.7c0.7,0,1.3-0.2,1.7-0.7
					c0.2-0.2,0.3-0.4,0.4-0.6l0.1-0.3h1.3l-0.1,0.3c-0.1,0.2-0.2,0.4-0.3,0.7c-0.2,0.4-0.4,0.7-0.7,0.9c-0.4,0.4-0.9,0.7-1.5,0.8
					c-0.3,0.1-0.7,0.1-1.1,0.1c-1,0-1.9-0.4-2.6-1.1c-0.7-0.7-1.1-1.8-1.1-3.1c0-1.3,0.4-2.4,1.1-3.2S121.6,80.7,122.7,80.7z
					 M139.2,80.7c0.6,0,1.1,0.1,1.7,0.4c0.5,0.3,1,0.6,1.2,1.1c0.3,0.4,0.5,0.9,0.5,1.4c0.1,0.3,0.1,0.7,0.1,1.3l0,0.5h-6l0,0.5
					c0.1,0.6,0.3,1.1,0.5,1.5c0.4,0.5,0.9,0.7,1.7,0.7c0.7,0,1.3-0.2,1.7-0.7c0.2-0.2,0.3-0.4,0.4-0.6l0.1-0.3h1.3l-0.1,0.3
					c-0.1,0.2-0.2,0.4-0.3,0.7c-0.2,0.4-0.4,0.7-0.7,0.9c-0.4,0.4-0.9,0.7-1.5,0.8c-0.3,0.1-0.7,0.1-1.1,0.1c-1,0-1.9-0.4-2.6-1.1
					c-0.7-0.7-1.1-1.8-1.1-3.1c0-1.3,0.4-2.4,1.1-3.2S138,80.7,139.2,80.7z M105.4,80.7c0.6,0,1.1,0.1,1.7,0.4
					c0.5,0.3,1,0.6,1.2,1.1c0.3,0.4,0.5,0.9,0.5,1.4c0.1,0.3,0.1,0.7,0.1,1.3l0,0.5h-6l0,0.5c0.1,0.6,0.3,1.1,0.5,1.5
					c0.4,0.5,0.9,0.7,1.7,0.7c0.7,0,1.3-0.2,1.7-0.7c0.2-0.2,0.3-0.4,0.4-0.6l0.1-0.3h1.3l-0.1,0.3c-0.1,0.2-0.2,0.4-0.3,0.7
					c-0.2,0.4-0.4,0.7-0.7,0.9c-0.4,0.4-0.9,0.7-1.5,0.8c-0.3,0.1-0.7,0.1-1.1,0.1c-1,0-1.9-0.4-2.6-1.1c-0.7-0.7-1.1-1.8-1.1-3.1
					c0-1.3,0.4-2.4,1.1-3.2S104.3,80.7,105.4,80.7z M114.7,80.7c1.2,0,1.9,0.4,2.3,1.2c0.2,0.4,0.3,0.8,0.3,1.4l0,0.5v5.2h-1.4v-5.1
					l0-0.4c0-0.3-0.1-0.6-0.2-0.8c-0.2-0.5-0.7-0.8-1.3-0.8c-0.3,0-0.6,0-0.8,0.1c-0.4,0.1-0.7,0.3-1,0.7c-0.2,0.3-0.4,0.5-0.4,0.8
					c-0.1,0.2-0.1,0.5-0.1,0.9l0,0.4v4.3h-1.4v-8.2h1.3v1.2l0.3-0.3c0.3-0.3,0.6-0.5,0.9-0.7C113.6,80.8,114.1,80.7,114.7,80.7z
					 M128.7,80.9l2.2,6.6l2.3-6.6h1.5l-3.1,8.2h-1.5l-3-8.2H128.7z M105.3,81.9c-0.6,0-1.2,0.2-1.6,0.7c-0.3,0.4-0.6,0.8-0.6,1.3
					l0,0.4h4.5c-0.1-0.6-0.2-1.1-0.4-1.4C106.8,82.3,106.2,81.9,105.3,81.9z M122.7,81.9c-0.6,0-1.2,0.2-1.6,0.7
					c-0.3,0.4-0.6,0.8-0.6,1.3l0,0.4h4.5c-0.1-0.6-0.2-1.1-0.4-1.4C124.2,82.3,123.5,81.9,122.7,81.9z M139.1,81.9
					c-0.6,0-1.2,0.2-1.6,0.7c-0.3,0.4-0.6,0.8-0.6,1.3l0,0.4h4.5c-0.1-0.6-0.2-1.1-0.4-1.4C140.6,82.3,140,81.9,139.1,81.9z
					 M122.2,77.6l1.4,2.2h-1l-2-2.2H122.2z M201.8,62.4c0.6,0,1.2,0.2,1.7,0.5c0.2,0.1,0.3,0.3,0.5,0.5l0.3,0.3v-1h1.3V70l0,0.5
					c0,0.8-0.2,1.5-0.4,2c-0.6,1.1-1.6,1.7-3.2,1.7c-0.9,0-1.6-0.2-2.2-0.6c-0.5-0.3-0.8-0.8-1-1.5l0-0.3h1.4l0.1,0.3
					c0.1,0.2,0.2,0.4,0.3,0.6c0.3,0.3,0.8,0.5,1.5,0.5c1,0,1.7-0.4,2.1-1.1c0.2-0.4,0.3-1.2,0.3-2.3c-0.3,0.4-0.6,0.7-1,0.9
					s-0.9,0.3-1.5,0.3c-0.9,0-1.7-0.3-2.3-0.9c-0.7-0.6-1-1.7-1-3.1c0-1.4,0.3-2.4,1-3.2C200.1,62.7,200.9,62.4,201.8,62.4z
					 M219.1,62.3c1.2,0,2.1,0.4,2.7,1.1c0.3,0.4,0.4,0.8,0.5,1.2l0,0.3h-1.3l-0.1-0.3c-0.1-0.2-0.1-0.4-0.3-0.5
					c-0.3-0.4-0.9-0.5-1.6-0.5c-0.5,0-0.9,0.1-1.2,0.3s-0.4,0.5-0.4,0.8c0,0.4,0.2,0.6,0.5,0.9c0.2,0.1,0.4,0.2,0.6,0.3l0.3,0.1
					l1.4,0.3c0.7,0.2,1.2,0.4,1.5,0.6c0.5,0.4,0.8,0.9,0.8,1.7c0,0.7-0.3,1.4-0.8,1.9c-0.5,0.5-1.4,0.8-2.5,0.8
					c-1.2,0-2.1-0.3-2.6-0.8c-0.4-0.5-0.7-1-0.8-1.6l0-0.4h1.3l0,0.3c0.1,0.3,0.2,0.5,0.3,0.7c0.3,0.4,0.9,0.7,1.8,0.7
					c0.5,0,1-0.1,1.3-0.3c0.4-0.2,0.6-0.6,0.6-1c0-0.4-0.2-0.6-0.5-0.8l-0.1-0.1l0,0l-0.4-0.2l0,0l-0.6-0.2l-1.5-0.4
					c-0.5-0.1-0.9-0.3-1.1-0.5c-0.6-0.4-0.9-0.9-0.9-1.5c0-0.8,0.3-1.4,0.8-1.9S218.1,62.3,219.1,62.3z M155.5,62.3
					c1,0,1.9,0.4,2.7,1.1s1.1,1.7,1.1,3.1c0,1.3-0.3,2.4-1,3.3s-1.6,1.3-3,1.3c-1.1,0-2-0.4-2.7-1.1c-0.7-0.8-1-1.8-1-3.1
					c0-1.4,0.3-2.5,1-3.3S154.3,62.3,155.5,62.3z M235.1,62.3c1,0,1.9,0.4,2.7,1.1s1.1,1.7,1.1,3.1c0,1.3-0.3,2.4-1,3.3
					s-1.6,1.3-3,1.3c-1.1,0-2-0.4-2.7-1.1c-0.7-0.8-1-1.8-1-3.1c0-1.4,0.3-2.5,1-3.3S233.9,62.3,235.1,62.3z M183.9,59.4v11.2h-1.2
					v-1.1l-0.3,0.4c-0.3,0.3-0.6,0.6-0.9,0.7c-0.4,0.2-0.9,0.3-1.5,0.3c-0.9,0-1.7-0.4-2.4-1.1c-0.7-0.8-1-1.8-1-3
					c0-1.2,0.3-2.2,0.9-3.1c0.6-0.9,1.5-1.3,2.6-1.3c0.6,0,1.1,0.1,1.6,0.4c0.2,0.1,0.4,0.3,0.6,0.5l0.2,0.3v-4.1H183.9z M211,62.3
					c0.6,0,1.1,0.1,1.7,0.4s1,0.6,1.2,1.1c0.3,0.4,0.5,0.9,0.5,1.4c0.1,0.3,0.1,0.7,0.1,1.3l0,0.5h-6l0,0.5c0.1,0.6,0.3,1.1,0.5,1.5
					c0.4,0.5,0.9,0.7,1.7,0.7c0.7,0,1.3-0.2,1.7-0.7c0.2-0.2,0.3-0.4,0.4-0.6l0.1-0.3h1.3l-0.1,0.3c-0.1,0.2-0.2,0.4-0.3,0.7
					c-0.2,0.4-0.4,0.7-0.7,0.9c-0.4,0.4-0.9,0.7-1.5,0.8c-0.3,0.1-0.7,0.1-1.1,0.1c-1,0-1.9-0.4-2.6-1.1c-0.7-0.7-1.1-1.8-1.1-3.1
					c0-1.3,0.4-2.4,1.1-3.2S209.8,62.3,211,62.3z M189.4,62.3c0.6,0,1.1,0.1,1.7,0.4s1,0.6,1.2,1.1c0.3,0.4,0.5,0.9,0.5,1.4
					c0.1,0.3,0.1,0.7,0.1,1.3l0,0.5h-6l0,0.5c0.1,0.6,0.3,1.1,0.5,1.5c0.4,0.5,0.9,0.7,1.7,0.7c0.7,0,1.3-0.2,1.7-0.7
					c0.2-0.2,0.3-0.4,0.4-0.6l0.1-0.3h1.3l-0.1,0.3c-0.1,0.2-0.2,0.4-0.3,0.7c-0.2,0.4-0.4,0.7-0.7,0.9c-0.4,0.4-0.9,0.7-1.5,0.8
					c-0.3,0.1-0.7,0.1-1.1,0.1c-1,0-1.9-0.4-2.6-1.1c-0.7-0.7-1.1-1.8-1.1-3.1c0-1.3,0.4-2.4,1.1-3.2S188.2,62.3,189.4,62.3z
					 M139.2,62.3c0.6,0,1.1,0.1,1.7,0.4s1,0.6,1.2,1.1c0.3,0.4,0.5,0.9,0.5,1.4c0.1,0.3,0.1,0.7,0.1,1.3l0,0.5h-6l0,0.5
					c0.1,0.6,0.3,1.1,0.5,1.5c0.4,0.5,0.9,0.7,1.7,0.7c0.7,0,1.3-0.2,1.7-0.7c0.2-0.2,0.3-0.4,0.4-0.6l0.1-0.3h1.3l-0.1,0.3
					c-0.1,0.2-0.2,0.4-0.3,0.7c-0.2,0.4-0.4,0.7-0.7,0.9c-0.4,0.4-0.9,0.7-1.5,0.8c-0.3,0.1-0.7,0.1-1.1,0.1c-1,0-1.9-0.4-2.6-1.1
					c-0.7-0.7-1.1-1.8-1.1-3.1c0-1.3,0.4-2.4,1.1-3.2S138,62.3,139.2,62.3z M167.7,62.3c0.6,0,1.1,0.1,1.7,0.4s1,0.6,1.2,1.1
					c0.3,0.4,0.5,0.9,0.5,1.4c0.1,0.3,0.1,0.7,0.1,1.3l0,0.5h-6l0,0.5c0.1,0.6,0.3,1.1,0.5,1.5c0.4,0.5,0.9,0.7,1.7,0.7
					c0.7,0,1.3-0.2,1.7-0.7c0.2-0.2,0.3-0.4,0.4-0.6l0.1-0.3h1.3l-0.1,0.3c-0.1,0.2-0.2,0.4-0.3,0.7c-0.2,0.4-0.4,0.7-0.7,0.9
					c-0.4,0.4-0.9,0.7-1.5,0.8c-0.3,0.1-0.7,0.1-1.1,0.1c-1,0-1.9-0.4-2.6-1.1c-0.7-0.7-1.1-1.8-1.1-3.1c0-1.3,0.4-2.4,1.1-3.2
					S166.6,62.3,167.7,62.3z M126.2,62.3c0.6,0,1.1,0.1,1.7,0.4s1,0.6,1.2,1.1c0.3,0.4,0.5,0.9,0.5,1.4c0.1,0.3,0.1,0.7,0.1,1.3
					l0,0.5h-6l0,0.5c0.1,0.6,0.3,1.1,0.5,1.5c0.4,0.5,0.9,0.7,1.7,0.7c0.7,0,1.3-0.2,1.7-0.7c0.2-0.2,0.3-0.4,0.4-0.6l0.1-0.3h1.3
					l-0.1,0.3c-0.1,0.2-0.2,0.4-0.3,0.7c-0.2,0.4-0.4,0.7-0.7,0.9c-0.4,0.4-0.9,0.7-1.5,0.8c-0.3,0.1-0.7,0.1-1.1,0.1
					c-1,0-1.9-0.4-2.6-1.1c-0.7-0.7-1.1-1.8-1.1-3.1c0-1.3,0.4-2.4,1.1-3.2S125,62.3,126.2,62.3z M104.4,62.3c1,0,1.7,0.2,2.3,0.5
					c0.5,0.3,0.8,0.8,0.9,1.4l0,0.3v4.7l0,0.1c0,0.1,0,0.2,0.1,0.2c0.1,0.1,0.2,0.1,0.4,0.1l0.2,0l0,0l0.2,0v1l-0.2,0.1
					c-0.1,0-0.2,0.1-0.3,0.1l-0.3,0c-0.1,0-0.1,0-0.2,0c-0.5,0-0.8-0.2-1-0.5c-0.1-0.2-0.2-0.4-0.2-0.8c-0.3,0.4-0.7,0.7-1.2,1
					c-0.5,0.3-1.1,0.4-1.7,0.4c-0.8,0-1.4-0.2-1.9-0.7c-0.5-0.5-0.7-1-0.7-1.7c0-0.8,0.2-1.3,0.7-1.8c0.4-0.3,0.8-0.6,1.4-0.7
					l0.4-0.1l2.2-0.3l0.2,0c0.2-0.1,0.3-0.2,0.4-0.3c0.1-0.1,0.1-0.3,0.1-0.5c0-0.5-0.2-0.8-0.5-1c-0.3-0.2-0.8-0.3-1.4-0.3
					c-0.7,0-1.2,0.2-1.5,0.6c-0.1,0.2-0.2,0.4-0.3,0.7l0,0.3h-1.3l0-0.4c0.1-0.8,0.4-1.3,0.9-1.7C102.8,62.5,103.5,62.3,104.4,62.3z
					 M147.6,62.3c0.9,0,1.7,0.2,2.2,0.7c0.5,0.4,0.8,1,1,1.9l0.1,0.4h-1.3l-0.1-0.4c-0.1-0.3-0.3-0.6-0.5-0.9
					c-0.3-0.3-0.8-0.5-1.4-0.5c-0.9,0-1.5,0.4-1.9,1.3c-0.2,0.6-0.4,1.2-0.4,2c0,0.8,0.2,1.5,0.5,2.1c0.3,0.6,0.9,0.8,1.6,0.8
					c0.6,0,1-0.2,1.3-0.5c0.3-0.3,0.5-0.6,0.6-1.1l0.1-0.3h1.3l-0.1,0.4c-0.2,0.9-0.5,1.5-1.1,1.9c-0.6,0.5-1.4,0.7-2.3,0.7
					c-1.1,0-1.9-0.4-2.5-1.2c-0.6-0.8-0.9-1.8-0.9-2.9c0-1.4,0.3-2.5,1-3.3C145.6,62.7,146.5,62.3,147.6,62.3z M111.2,62.5v5.4
					l0,0.3c0,0.3,0.1,0.5,0.2,0.7c0.2,0.5,0.7,0.7,1.4,0.7c1,0,1.6-0.4,1.9-1.3c0.1-0.4,0.2-0.8,0.3-1.4l0-0.5v-4h1.4v8.2h-1.3
					l0-1.2l-0.2,0.3c-0.1,0.2-0.3,0.3-0.5,0.5c-0.5,0.4-1.2,0.6-1.9,0.6c-1.2,0-2-0.4-2.4-1.2c-0.2-0.3-0.3-0.8-0.3-1.3l0-0.4v-5.5
					H111.2z M120.1,60.2v2.3h1.3v1.1h-1.3v5.3l0,0.2c0,0.2,0.1,0.3,0.3,0.4c0.1,0,0.2,0.1,0.3,0.1l0.3,0l0,0l0.2,0l0,0l0.1,0v1.1
					l-0.2,0.1l-0.2,0c-0.2,0-0.4,0-0.6,0c-0.6,0-1.1-0.2-1.3-0.5c-0.2-0.2-0.3-0.5-0.3-0.9l0-0.4v-5.4h-1.1v-1.1h1.1v-2.3H120.1z
					 M225.7,60.2v2.3h1.3v1.1h-1.3v5.3l0,0.2c0,0.2,0.1,0.3,0.3,0.4c0.1,0,0.2,0.1,0.3,0.1l0.3,0l0,0l0.2,0l0,0l0.1,0v1.1l-0.2,0.1
					l-0.2,0c-0.2,0-0.4,0-0.6,0c-0.6,0-1.1-0.2-1.3-0.5c-0.2-0.2-0.3-0.5-0.3-0.9l0-0.4v-5.4h-1.1v-1.1h1.1v-2.3H225.7z M229.8,62.5
					v8.1h-1.4v-8.1H229.8z M244.4,62.3c1.2,0,1.9,0.4,2.3,1.2c0.2,0.4,0.3,0.8,0.3,1.4l0,0.5v5.2h-1.4v-5.1l0-0.4
					c0-0.3-0.1-0.6-0.2-0.8c-0.2-0.5-0.7-0.8-1.3-0.8c-0.3,0-0.6,0-0.8,0.1c-0.4,0.1-0.7,0.3-1,0.7c-0.2,0.3-0.4,0.5-0.4,0.8
					c-0.1,0.2-0.1,0.5-0.1,0.9l0,0.4v4.3h-1.4v-8.2h1.3v1.2l0.3-0.3c0.3-0.3,0.6-0.5,0.9-0.7C243.4,62.4,243.9,62.3,244.4,62.3z
					 M162.3,59.5v11.2h-1.4V59.5H162.3z M91.7,59.5v4.6h5.8v-4.6H99v11.2h-1.5v-5.2h-5.8v5.2h-1.5V59.5H91.7z M235.1,63.5
					c-0.8,0-1.4,0.3-1.8,1c-0.4,0.6-0.6,1.4-0.6,2.3c0,0.9,0.2,1.6,0.6,2.2s1,0.9,1.8,0.9c0.9,0,1.5-0.3,1.9-1
					c0.3-0.7,0.5-1.5,0.5-2.3c0-0.8-0.1-1.4-0.4-1.9C236.7,63.8,236,63.5,235.1,63.5z M155.5,63.5c-0.8,0-1.4,0.3-1.8,1
					c-0.4,0.6-0.6,1.4-0.6,2.3c0,0.9,0.2,1.6,0.6,2.2s1,0.9,1.8,0.9c0.9,0,1.5-0.3,1.9-1c0.3-0.7,0.5-1.5,0.5-2.3
					c0-0.8-0.1-1.4-0.4-1.9C157.1,63.8,156.4,63.5,155.5,63.5z M106.2,66.5l-0.2,0.1c-0.1,0.1-0.3,0.1-0.5,0.2l-0.4,0.1l0,0
					l-0.4,0.1L104,67l-0.3,0.1c-0.3,0.1-0.6,0.1-0.8,0.3c-0.4,0.2-0.6,0.6-0.6,1.1c0,0.4,0.1,0.7,0.4,0.9s0.6,0.3,1,0.3
					c0.5,0,0.9-0.1,1.4-0.3c0.7-0.3,1-0.8,1.1-1.5l0-0.3V66.5z M180.5,63.6c-0.7,0-1.2,0.3-1.7,0.8c-0.4,0.5-0.6,1.3-0.6,2.3
					c0,0.9,0.2,1.6,0.6,2.2c0.4,0.6,1,0.9,1.8,0.9c0.6,0,1.2-0.3,1.6-0.8c0.4-0.5,0.6-1.3,0.6-2.3c0-1-0.2-1.8-0.6-2.3
					C181.6,63.8,181.1,63.6,180.5,63.6z M202.1,63.6c-1,0-1.6,0.5-2,1.4c-0.2,0.5-0.3,1.1-0.3,1.9c0,0.9,0.2,1.6,0.6,2.1
					c0.4,0.5,0.9,0.7,1.5,0.7c1,0,1.7-0.4,2.1-1.3c0.2-0.5,0.3-1.1,0.3-1.8c0-1-0.2-1.8-0.6-2.2C203.2,63.8,202.7,63.6,202.1,63.6z
					 M167.6,63.5c-0.6,0-1.2,0.2-1.6,0.7c-0.3,0.4-0.6,0.8-0.6,1.3l0,0.4h4.5c-0.1-0.6-0.2-1.1-0.4-1.4
					C169.1,63.8,168.5,63.5,167.6,63.5z M210.9,63.5c-0.6,0-1.2,0.2-1.6,0.7c-0.3,0.4-0.6,0.8-0.6,1.3l0,0.4h4.5
					c-0.1-0.6-0.2-1.1-0.4-1.4C212.4,63.8,211.8,63.5,210.9,63.5z M139.1,63.5c-0.6,0-1.2,0.2-1.6,0.7c-0.3,0.4-0.6,0.8-0.6,1.3
					l0,0.4h4.5c-0.1-0.6-0.2-1.1-0.4-1.4C140.6,63.8,140,63.5,139.1,63.5z M126.1,63.5c-0.6,0-1.2,0.2-1.6,0.7
					c-0.3,0.4-0.6,0.8-0.6,1.3l0,0.4h4.5c-0.1-0.6-0.2-1.1-0.4-1.4C127.6,63.8,127,63.5,126.1,63.5z M189.3,63.5
					c-0.6,0-1.2,0.2-1.6,0.7c-0.3,0.4-0.6,0.8-0.6,1.3l0,0.4h4.5c-0.1-0.6-0.2-1.1-0.4-1.4C190.8,63.8,190.1,63.5,189.3,63.5z
					 M140.8,59.2l-2,2.2h-1l1.4-2.2H140.8z M229.8,59.5V61h-1.4v-1.6H229.8z M210.4,5.6c1.3,0,2.9,0.6,3.8,2.5h0.1V6h4.5v17.5
					c0,4.9-2.2,7.2-7.7,7.2c-4,0-6.3-1.8-6.3-4.9h4.5c0,0.6,0.3,1.1,0.7,1.4c0.4,0.3,1,0.5,1.6,0.5c1.9,0,2.6-1.4,2.6-3.3V22h-0.1
					c-1,1.4-2.4,2.3-3.9,2.3c-3.8,0-5.6-2.6-5.6-9.3l0-0.9l0-0.9C204.8,9.3,205.9,5.6,210.4,5.6z M154.7,5.6c5.1,0,6.6,3.2,6.7,8.2
					l0,1.1V16h-9.3v1.5c0,2.2,0.6,4.3,2.3,4.3c1.6,0,2.2-1.2,2.5-3.5h4.2c-0.2,4.3-2.2,6.7-6.7,6.7c-5.2,0-6.6-3-7-6.5l-0.1-0.8
					l0-0.8l0-0.8l0-0.8C147.3,10.1,148.3,5.6,154.7,5.6z M94.5,0v7.9h0.1c0.9-1.6,2.5-2.4,4.5-2.4c2.9,0,4.7,1.6,4.7,5.2v13.7h-4.7
					V11.8c0-1.9-0.6-2.6-2-2.6c-1.6,0-2.5,1-2.5,3.1v12.2h-4.7V0H94.5z M211.8,9.2c-1.5,0-2.2,0.9-2.4,3.4l-0.1,0.9l0,1.1l0,1.2
					l0,0.9c0.1,2.2,0.6,3.9,2.3,3.9c2,0,2.6-2.2,2.6-5.3C214.2,10.9,213.7,9.2,211.8,9.2z M154.5,8.8c-1.8,0-2.4,1.7-2.4,3.3l0,1.1
					h4.8l0-0.5l-0.1-0.9C156.6,9.8,156.1,8.8,154.5,8.8z"/>
			</g>
		</g>
	</g>
</g>
</svg>
